<svg xmlns="http://www.w3.org/2000/svg" xml:space="preserve" viewBox="0 0 25.73563 27.15262">
  <path fill="#d27f4f" stroke="#000" stroke-linejoin="bevel" stroke-miterlimit=".5" stroke-width=".70556" d="M13.22871.34345c-.0122-.0029-3.8917 4.59795-4.92528 5.84099l-.21549.25993 2.42724 3.46646 2.42724 3.46645 4.21163-.3638c2.31646-.19978 4.22741-.37038 4.24677-.37982.0194-.0094.34302-1.76505.71934-3.90106.49894-2.8319.65485-3.90327.57464-3.95738-.0837-.05645-9.39208-4.4144-9.46609-4.43177zm-.76429.0367c-.16495-.0036-.45622.01696-.9281.05993l-1.18237.108-4.41471 3.09077-4.41472 3.09129-.49661 1.06815C.75467 8.38574.54784 8.86952.5685 8.87316c.02066.0037 1.64338-.57684 3.60598-1.29036 1.9626-.71352 3.60353-1.33705 3.6468-1.38545.3381-.3781 4.74765-5.6309 4.81314-5.7335.0336-.05253-.005-.08009-.17-.08372zm2.99826 2.52542a.10572.10572 0 0 1 .0346 0l.93792.20309c.0468.0126.0955.05822.10801.1018l.25993.89865c.0126.04358.0605.09581.10594.11627l.25114.12041c.0447.02258.10966.02375.14418.0026l.70952-.4346c.0345-.02117.0964-.01489.13746.01447l.79788.62529c.0383.0328.0583.09014.0444.12764l-.28215.76688c-.0137.0375.002.09926.0341.13694l.18448.22479c.0304.03888.0933.07312.13953.07596l.95601.05839c.0462.0028.10227.03911.12506.08113l.40308.8418c.0181.04309.003.09416-.0326.1137l-.7276.39687c-.0358.01953-.0575.07114-.0481.11472l.0553.2987c.007.04341.0477.09966.0909.12557l.89504.53692c.0432.02587.0762.08129.0734.12299l-.10232.78496c-.008.04004-.0522.06926-.0987.0646l-.93948-.09405c-.0465-.0047-.0982.0208-.11472.05684l-.14883.28939c-.0196.0342-.0141.09567.0124.13642l.54725.84233c.0265.04075.0256.09688-.002.12506l-.54932.48782c-.0315.02451-.092.0222-.13436-.0052l-.85525-.5519c-.0424-.02736-.1076-.03572-.1452-.0186l-.37104.1478c-.0397.01381-.0711.06014-.0698.10283l.0284.87643c.001.04268-.0332.0822-.077.08785 0 0-.44418.05736-.72399.05736-.054 0-.0786-.001-.0786-.001-.0459-.0012-.10387-.03615-.12867-.07752l-.50178-.83612c-.0248-.0414-.0834-.08173-.13023-.0894l-.48886-.0987c-.0468-.01131-.105.0051-.12919.03617l-.49247.63252c-.0242.03102-.0814.04063-.12713.02119l-.7989-.3793c-.0444-.02335-.0802-.07712-.0796-.11938l.0124-.8599c.00061-.04226-.0318-.10164-.0724-.13177l-.41549-.33021c-.0384-.03271-.10419-.05194-.14624-.04237l-.85215.19378c-.0421.0096-.10292-.0135-.13539-.05116l-.54725-.69194c-.0288-.03972-.0315-.09636-.006-.1261l.53072-.60978c.0258-.02974.0296-.08873.009-.13126l-.18706-.4222c-.0173-.04315-.0697-.09097-.11628-.10593l-.93947-.30179c-.0466-.01495-.0853-.02855-.0858-.03049l-.0005-.0021c-.0819-.32508-.12869-.86971-.12869-.86971-.004-.04308.0284-.08424.0713-.09198l.88521-.1602c.0429-.0077.0827-.04754.0884-.08837l.0641-.34623c.009-.0396-.0128-.10067-.0491-.1354l-.73278-.70073c-.0362-.03473-.0519-.09228-.0341-.12764l.38137-.64492c.0223-.0324.0782-.04562.12454-.02894l.95963.34571c.0463.01667.10896.0089.13901-.01705l.22428-.17828c.0323-.02365.0471-.07848.0326-.12196l-.29455-.88211c-.0145-.04347.005-.09223.0429-.10852l.77825-.27337c.041-.01163.10348.0081.1385.04393l.72501.74156c.035.03584.1006.0627.14521.05943 0 0 .16466-.0119.2925-.0119h.0212c.0231.00043.0517-.03081.0636-.06924l.24287-.78445c.009-.02882.0385-.05024.0723-.05581zm-.17 1.86914c-1.53197 0-2.4746 1.1882-2.1053 2.6541.36928 1.46592 1.91078 2.6541 3.44267 2.6541 1.53196 0 2.47408-1.18818 2.1048-2.6541-.3693-1.46592-1.91023-2.6541-3.44218-2.6541zm7.81501.51263c-.022.02357-.3281 1.7286-.68057 3.78891l-.64079 3.74603 1.23817 3.42046c.68088 1.88125 1.2657 3.49593 1.29966 3.5879.034.09194.0796.15453.1018.139.063-.0441.89258-1.83504.95033-2.05155.0284-.10637-.15683-2.5671-.41186-5.46788l-.46354-5.2741-.67644-.96583c-.37194-.5312-.69469-.94652-.71676-.92294zM7.7138 6.66503c-.0092.0014-.01797.0038-.02739.0067C7.38457 6.76627.34723 9.34416.3494 9.35943c.0012.0086.20955 2.36501.4625 5.23688.25297 2.87187.47395 5.24238.49145 5.26738.01751.025 1.77265.3527 3.90002.72812s3.8769.6762 3.88762.6687c.0107-.0075.82658-1.7425 1.81333-3.85559l1.7942-3.84214-2.42983-3.46955C8.0282 6.89348 7.85134 6.64473 7.7138 6.665zM6.42396 9.45814c.04385.00035.08971.0353.1018.07803l.25167.88057c.0122.0427.0571.08499.09974.09405l.23616.05736c.04198.0115.10229-.0052.13436-.03721l.65887-.65836c.03204-.03204.09-.04244.12868-.02274l.75189.4408c.0361.02412.05493.07938.04238.12299l-.25632.89193c-.01248.0436.0024.10446.03307.1354l.17467.18707c.02878.03276.08805.0517.13125.04186l.8935-.20413c.0432-.0099.0966.01294.11833.05116l.38447.78032c.0173.04065.004.09902-.0294.1297l-.67649.62322c-.0333.03068-.0527.0913-.0434.13488l.0543.30127c.007.04421.0452.09308.0858.10852l.84233.31988c.0406.01542.072.06507.0698.11007l-.0884.86093c-.007.04467-.0485.0876-.092.0956l-.87903.16175c-.0435.008-.0913.04967-.10645.0925l-.13643.3483c-.018.04172-.0122.10523.0129.14107l.51936.74053c.0251.03584.0246.09575-.001.13332l-.5085.67024c-.0292.03476-.0857.04873-.12558.03152l-.80408-.34726c-.03987-.01721-.10143-.0079-.13643.02067l-.34468.26045c-.037.0257-.06628.08328-.0646.12815l.03462.9214c.0017.04486-.03047.09654-.0713.11472 0 0-.41443.18414-.67594.262-.05045.01502-.07338.02119-.07338.02119-.04289.01145-.09735-.0096-.12092-.04651l-.47697-.74724c-.0236-.03698-.07868-.06328-.12247-.0584l-.45734.03153c-.0439.001-.0981.03424-.1204.0739l-.4548.80822c-.02233.03963-.07598.06578-.11886.05788l-.74982-.17983c-.04171-.0124-.07563-.0594-.07545-.10439l.0036-.9157c.00018-.04498-.03108-.09871-.06925-.11938l-.39117-.2346c-.0362-.024-.09773-.02599-.13694-.0041l-.79476.44282c-.03922.02185-.09642.01436-.12713-.01654l-.51831-.58187c-.0273-.0341-.03007-.09357-.0062-.1323l.48989-.79375c.02387-.03872.0276-.1028.0078-.1421l-.17937-.39533c-.01658-.04094-.0659-.0772-.10955-.0801l-.88109-.05839c-.04365-.0029-.0796-.0069-.0801-.0088l-.00051-.0016c-.07961-.3219-.12816-.88625-.12816-.88625-.0038-.04466.0256-.09767.06563-.11782l.82579-.416c.04002-.02015.0767-.07346.08165-.11833l.05633-.385c.0082-.04452-.01276-.10298-.04703-.1297l-.692-.5395c-.03417-.02675-.0488-.08314-.03256-.12558l.35037-.79013c.02056-.04057.07282-.0699.11627-.06511l.89969.09974c.04345.0048.10186-.02094.1297-.05685l.20826-.25166c.02998-.03407.0429-.09643.02894-.1385l-.28319-.85317c-.01398-.04206.0032-.09923.03876-.12713l.72502-.50643c.0382-.02374.09665-.01996.12971.0083l.68471.58446c.03307.02826.09425.03863.13591.02274 0 0 .15443-.059.27389-.09457l.01964-.0057c.02163-.006.04765-.0469.05839-.09095l.21962-.89968c.01075-.04405.0554-.08358.09922-.08837zm-.25218 1.973c-.26251-.0043-.53202.0317-.80047.11163-1.43174.42628-2.30099 1.94824-1.942 3.39979.359 1.45158 1.8105 2.283 3.24218 1.85673 1.43173-.42628 2.30151-1.94873 1.94252-3.4003-.29168-1.17941-1.30467-1.94927-2.44223-1.96784zm15.23266 1.57304c-.0748-.01077-7.77805.65734-8.20467.71158-.0224.0028-.0446.011-.0698.02945-.17618.12941-.49144.77783-1.9208 3.84318-1.37757 2.95422-1.77083 3.86543-1.69293 3.92586.0558.04328 1.27855 1.06458 2.71663 2.26963 1.43806 1.20504 2.76097 2.30999 2.93987 2.45514l.32556.26355 4.32893-3.0551 4.32997-3.05615-1.33635-3.68763c-.73488-2.0283-1.37252-3.6932-1.41645-3.69952zm-3.57084 1.31051c.0466.00064.0929.0359.10232.07855l.19585.8785c.01.04262.0536.08526.0982.09457l.24701.0584c.0437.01173.10951-.0045.14624-.03618l.755-.65164c.0367-.0317.0989-.04107.1385-.02119l.76377.4439c.0365.02426.0526.07911.0357.12247l-.3457.88677c-.0168.04334-.006.10437.0243.1354l.17052.18758c.028.03283.0891.0519.13591.04237l.9679-.1974c.0467-.0095.10146.01398.12144.05219l.34571.7798c.0151.0406-.004.09832-.0419.12867l-.77049.6165c-.0379.03034-.0637.09037-.0574.13384l.0336.30076c.003.04408.0407.09287.0827.10852l.86971.324c.042.01564.0712.06527.0651.11008l-.16382.85731c-.0111.04445-.0585.0869-.10542.09457l-.94878.15503c-.0469.0077-.10133.0489-.12092.09147l-.17363.34623c-.0226.04144-.0218.10469.002.14056l.49248.74104c.0238.03587.0184.09606-.0119.13333l-.59583.66404c-.0339.03444-.0949.0479-.1359.03049l-.82787-.35088c-.041-.01741-.10668-.0086-.14624.01964l-.3886.25683c-.0415.02537-.0767.08292-.0785.12764l-.0388.91777c-.002.04471-.0398.09585-.0847.1137 0 0-.4559.181-.74053.25682-.0549.01463-.0801.02015-.0801.02015-.0466.01112-.10298-.0095-.12505-.0465l-.44649-.74777c-.0221-.03699-.0786-.06349-.12557-.0589l-.48938.02841c-.0468.00075-.10738.03351-.13436.07286l-.54983.80202c-.027.03933-.0858.06448-.13075.05633l-.7834-.18396c-.0434-.01262-.0757-.05958-.0718-.1044l.0785-.91208c.004-.04481-.0251-.09853-.0641-.11937l-.3974-.23668c-.0366-.02414-.1017-.02615-.1452-.0047l-.8816.43563c-.0435.0215-.1037.01393-.13386-.01705l-.50436-.5829c-.0263-.03416-.0244-.09337.004-.13178l.58601-.78807c.0285-.0384.0376-.1018.0196-.14108l-.15864-.39532c-.0143-.0409-.0638-.07693-.11007-.0801l-.93276-.06408c-.0462-.0032-.0844-.0074-.0847-.0093v-.0015c-.0585-.32119-.0646-.88418-.0646-.88418-.00044-.04451.0354-.09698.0796-.1168l.91261-.40875c.0442-.01981.0877-.07263.0966-.1173l.0915-.38345c.0123-.0443-.005-.10235-.0398-.12919l-.69195-.54209c-.0342-.02686-.045-.0834-.0243-.12557l.43666-.78445c.0252-.04028.0833-.06914.1292-.06408l.9493.1049c.0458.0051.11007-.0197.14262-.05528l.24184-.2496c.0347-.03374.0538-.09547.0424-.13746l-.23203-.85163c-.0114-.04199.0121-.09906.0522-.1266l.81236-.49972c.0426-.02339.10458-.01956.13746.0088l.6811.58705c.0329.02837.097.0388.14262.02325 0 0 .16867-.05734.2987-.09198l.0217-.0057c.0235-.0058.0547-.04662.0698-.09043l.30695-.89452c.015-.04382.0661-.08337.11317-.08785zm-.42892 1.9637c-.279-.006-.56823.02759-.8604.10543-1.5583.41515-2.60783 1.9261-2.34405 3.37447.26378 1.4484 1.74078 2.28582 3.29902 1.87068 1.5583-.41515 2.60783-1.92555 2.34404-3.37395-.21432-1.17682-1.22959-1.95058-2.4386-1.97662zM1.493 20.26783l.70383 1.00355.70383 1.00356 4.84932 2.26291 4.84931 2.26291 1.14257-.08216c1.1602-.0836 1.26994-.10088 1.20923-.18759-.0187-.0268-1.34435-1.14519-2.94556-2.48563L9.0946 21.6083l-3.8008-.67025z" paint-order="stroke fill markers"/>
</svg>
