<svg xmlns="http://www.w3.org/2000/svg" xmlns:xlink="http://www.w3.org/1999/xlink" viewBox="0 0 317.0989 470.8696">
  <defs>
    <path id="a" d="M0 360h360V0H0Z"/>
  </defs>
  <defs>
    <clipPath id="b" clipPathUnits="userSpaceOnUse">
      <use xlink:href="#a"/>
    </clipPath>
    <clipPath id="c" clipPathUnits="userSpaceOnUse">
      <use xlink:href="#a"/>
    </clipPath>
    <clipPath id="d" clipPathUnits="userSpaceOnUse">
      <use xlink:href="#a"/>
    </clipPath>
    <clipPath id="e" clipPathUnits="userSpaceOnUse">
      <use xlink:href="#a"/>
    </clipPath>
    <clipPath id="f" clipPathUnits="userSpaceOnUse">
      <use xlink:href="#a"/>
    </clipPath>
    <clipPath id="g" clipPathUnits="userSpaceOnUse">
      <use xlink:href="#a"/>
    </clipPath>
    <clipPath id="h" clipPathUnits="userSpaceOnUse">
      <use xlink:href="#a"/>
    </clipPath>
    <clipPath id="i" clipPathUnits="userSpaceOnUse">
      <use xlink:href="#a"/>
    </clipPath>
    <clipPath id="j" clipPathUnits="userSpaceOnUse">
      <use xlink:href="#a"/>
    </clipPath>
    <clipPath id="k" clipPathUnits="userSpaceOnUse">
      <use xlink:href="#a"/>
    </clipPath>
    <clipPath id="l" clipPathUnits="userSpaceOnUse">
      <use xlink:href="#a"/>
    </clipPath>
    <clipPath id="m" clipPathUnits="userSpaceOnUse">
      <use xlink:href="#a"/>
    </clipPath>
    <clipPath id="n" clipPathUnits="userSpaceOnUse">
      <use xlink:href="#a"/>
    </clipPath>
    <clipPath id="o" clipPathUnits="userSpaceOnUse">
      <use xlink:href="#a"/>
    </clipPath>
    <clipPath id="p" clipPathUnits="userSpaceOnUse">
      <use xlink:href="#a"/>
    </clipPath>
    <clipPath id="q" clipPathUnits="userSpaceOnUse">
      <use xlink:href="#a"/>
    </clipPath>
    <clipPath id="r" clipPathUnits="userSpaceOnUse">
      <use xlink:href="#a"/>
    </clipPath>
  </defs>
  <g clip-path="url(#b)" transform="matrix(1.3333 0 0 -1.3333 -73.92 470.8696)">
    <path fill="#c68135" d="M162.6763 261.5088s2.343.313 1.4 3.36c-.942 3.047-3.64 5.88-2.8 8.4.84 2.52-17.08 23.24 8.96 28.84 0 0 4.2 18.76 22.4 14.84 0 0 18.76 13.44 27.161-6.44.653-1.547 23.239 6.44 31.92-14.84 8.679-21.28-11.201-29.4-11.201-29.4s10.92-8.96 3.08-23.8c0 0 14.281-10.08 10.08-20.72 0 0-10.02-28.028-69.647.692-32.819 15.808 6.647-33.172 6.647-33.172Z"/>
    <path fill="none" stroke="#000" stroke-miterlimit="10" d="M162.6763 261.5088s2.343.313 1.4 3.36c-.942 3.047-3.64 5.88-2.8 8.4.84 2.52-17.08 23.24 8.96 28.84 0 0 4.2 18.76 22.4 14.84 0 0 18.76 13.44 27.161-6.44.653-1.547 23.239 6.44 31.92-14.84 8.679-21.28-11.201-29.4-11.201-29.4s10.92-8.96 3.08-23.8c0 0 14.281-10.08 10.08-20.72 0 0-10.02-28.028-69.647.692-32.819 15.808 6.647-33.172 6.647-33.172Z"/>
  </g>
  <g clip-path="url(#c)" transform="matrix(1.3333 0 0 -1.3333 -73.92 470.8696)">
    <path d="M168.5566 263.4687c-1.88 3.735-3.429 7.681-4.103 11.886-.152 1.053-.233 2.131-.124 3.221.105 1.077.385 2.222 1.14 3.143.736.935 1.918 1.451 3.035 1.543 1.056.11 2.114.167 3.174.18 2.119-.003 4.242-.18 6.328-.619 2.067-.45 4.177-1.111 5.905-2.478.859-.672 1.601-1.539 2.039-2.559.445-1.014.574-2.139.46-3.209-.116-1.075-.458-2.097-.896-3.055-.414-.972-.98-1.863-1.559-2.733.97 1.834 1.888 3.781 1.965 5.826.056 1.009-.106 2.02-.544 2.905-.428.89-1.12 1.634-1.93 2.213-1.637 1.151-3.616 1.811-5.622 2.198-2.013.394-4.081.535-6.141.512-1.03.003-2.062-.038-3.086-.129-.963-.074-1.845-.464-2.426-1.172-.599-.697-.876-1.673-.983-2.657-.104-.992-.073-2.015.026-3.035.217-2.043.713-4.07 1.301-6.064.569-2.003 1.279-3.968 2.041-5.917m5.0396 45.3604-.866-4.017c-.273-1.332-.538-2.658-.719-3.99-.19-1.329-.31-2.666-.245-3.985.082-1.301.318-2.658 1.27-3.688-.612.342-1.069.931-1.413 1.559-.327.642-.521 1.341-.632 2.043-.234 1.41-.149 2.828.03 4.21.42 2.758 1.264 5.427 2.575 7.868m22.3999 6.1597c-1.35-1.504-2.684-2.956-3.562-4.633-.442-.828-.754-1.706-.851-2.626-.064-.926.147-1.851.493-2.821-.694.736-1.195 1.731-1.274 2.824-.062 1.09.267 2.156.75 3.091.499.935 1.16 1.752 1.921 2.445.754.695 1.59 1.3 2.523 1.72m.2803-11.7598c1.376.168 2.772.149 4.153-.017a17.161 17.161 0 0 0 4.078-.961c1.307-.512 2.61-1.148 3.655-2.143 1.061-.96 1.837-2.239 2.114-3.599-.653 1.234-1.563 2.209-2.61 2.996-1.048.792-2.269 1.342-3.508 1.81-1.241.48-2.543.828-3.861 1.131-1.32.289-2.656.565-4.021.783m-12.3203-10.0801c.744.804 1.688 1.408 2.675 1.889.989.482 2.027.861 3.085 1.165 2.123.581 4.304.92 6.508 1.056 4.454.262 8.963-1.234 12.488-3.988.872-.702 1.685-1.481 2.399-2.346.728-.847 1.378-1.786 1.855-2.832.488-1.046.701-2.215.754-3.327.057-1.118.023-2.208-.048-3.312-.164-2.194-.505-4.405-1.312-6.474-.823-2.044-2.149-3.956-4.023-5.11 1.736 1.34 2.912 3.239 3.562 5.278.689 2.034.936 4.195 1.004 6.342-.015 2.143.147 4.376-.764 6.223-.441.933-1.053 1.799-1.755 2.592-.684.808-1.465 1.53-2.295 2.185-3.294 2.672-7.574 4.095-11.838 4.004-2.149-.041-4.31-.291-6.415-.763-2.094-.47-4.212-1.156-5.88-2.582"/>
    <path d="M197.9561 283.3486c.006.745-.104 1.469-.345 2.147-.201.688-.545 1.316-.905 1.918-.774 1.179-1.794 2.188-2.971 2.996-.542.464-1.209.766-1.803 1.167-.643.329-1.283.668-1.939.982-.675.274-1.331.604-2.016.874-.681.278-1.376.525-2.061.836.739-.09 1.468-.245 2.209-.369.729-.161 1.442-.398 2.161-.617.714-.238 1.394-.576 2.091-.87l.988-.569c.336-.18.656-.387.958-.625 1.245-.88 2.351-2.033 3.059-3.419.705-1.371.986-3.005.574-4.451"/>
    <path d="M188.9961 283.6289c.439 1.468.468 3.06-.037 4.467-.492 1.413-1.539 2.556-2.804 3.317l-.468.299c-.163.087-.339.153-.508.231l-1.024.449c-.727.19-1.43.453-2.172.584-.748.105-1.476.299-2.23.364l-2.261.2-.428.038.003.401c.012 1.695.325 3.314.882 4.889.559 1.566 1.459 3.04 2.685 4.198 1.219 1.146 2.701 2.065 4.317 2.484l.595.192c.201.046.407.073.611.11l1.225.206c.819.083 1.643.066 2.463.087l.081.002.075-.037c2.012-1.005 3.923-2.156 5.711-3.505.886-.684 1.715-1.448 2.448-2.296.721-.84 1.373-1.835 1.477-2.96-.219 1.101-.927 1.999-1.681 2.776-.772.775-1.633 1.458-2.542 2.071-1.803 1.244-3.752 2.304-5.741 3.192l.154-.035c-.782-.064-1.569-.069-2.343-.151l-1.147-.21c-.191-.037-.384-.064-.571-.109l-.548-.188c-1.497-.407-2.818-1.268-3.909-2.318-1.084-1.071-1.899-2.406-2.454-3.847-.539-1.438-.858-3.016-.889-4.53l-.425.438 2.323-.239c.774-.082 1.538-.279 2.303-.433.763-.168 1.498-.476 2.244-.709l1.065-.521c.176-.091.358-.168.528-.268l.489-.342c1.319-.862 2.414-2.177 2.813-3.721.425-1.526.281-3.157-.31-4.576"/>
    <path d="M168.5566 282.7891c-.872 1.595-1.419 3.426-1.34 5.332.041.95.29 1.915.761 2.781.476.865 1.203 1.585 2.024 2.104 1.675 1.021 3.596 1.344 5.434 1.366 1.85.035 3.672-.239 5.441-.663-1.821.039-3.628.045-5.396-.116-1.757-.172-3.519-.538-4.945-1.432-1.456-.856-2.334-2.396-2.545-4.108-.198-1.714.05-3.526.566-5.264m29.961-27.6704c2.657.08 5.312.541 7.804 1.404 2.478.855 4.844 2.219 6.409 4.271 1.566 2.055 2.12 4.666 2.016 7.233-.027 2.595-.702 5.175-1.436 7.743l.092.038c1.269-2.366 2.125-4.986 2.343-7.736.254-2.74-.6-5.648-2.39-7.777-1.782-2.157-4.314-3.466-6.88-4.247-2.594-.755-5.284-1.081-7.96-1.029Zm-2.7989-23.2398c3.406.007 6.83.619 9.958 1.902 3.122 1.259 5.938 3.406 7.517 6.348.793 1.459 1.281 3.063 1.544 4.702.096.826.208 1.65.202 2.487.066.832-.006 1.67-.036 2.507-.162 3.363-1.007 6.676-1.874 9.987l.093.034c1.409-3.129 2.425-6.471 2.778-9.943.148-1.737.12-3.502-.187-5.237-.342-1.726-.926-3.415-1.825-4.933-1.774-3.081-4.8-5.225-8.028-6.417-3.254-1.187-6.72-1.662-10.147-1.537Zm23.4708 36.3667c.387 1.573.326 3.226.075 4.805-.247 1.589-.753 3.125-1.405 4.583-.649 1.469-1.572 2.783-2.398 4.152-.421.682-.903 1.327-1.32 2.024-.473.655-.948 1.315-1.382 2.025l.074.069c.643-.517 1.251-1.078 1.848-1.654.553-.612 1.108-1.233 1.605-1.899.971-1.349 1.741-2.845 2.311-4.409.585-1.556 1.01-3.176 1.163-4.829.125-1.649.048-3.331-.477-4.901Z"/>
    <path d="M220.6025 246.9854c1.831 1.791 3.492 3.785 4.668 6.049 1.162 2.257 1.81 4.802 1.543 7.312-.246 2.51-1.349 4.867-2.857 6.877-1.513 2.006-3.427 3.76-5.517 5.102l-.83.534.944.283c1.843.552 3.604 1.365 5.074 2.529.717.597 1.376 1.261 1.899 2.029.506.776.902 1.624 1.16 2.524.521 1.806.467 3.763.152 5.663-.343 1.901-.944 3.778-1.765 5.556l.087.05c1.044-1.681 1.817-3.533 2.298-5.477.489-1.937.606-4.019.123-6.028-.241-1.001-.64-1.976-1.21-2.848-.581-.864-1.296-1.63-2.098-2.278-1.636-1.262-3.539-2.07-5.475-2.587l.116.816c2.187-1.501 4.072-3.325 5.616-5.448 1.518-2.12 2.622-4.616 2.821-7.25.228-2.638-.549-5.253-1.793-7.514-1.267-2.27-3-4.225-4.888-5.967Z"/>
    <path d="M227.0293 238.8437c.285 1.228.441 2.485.518 3.735.086 1.25.073 2.502-.051 3.734-.15 1.235-.485 2.412-.791 3.586-.327 1.178-.809 2.282-1.348 3.459l.078.062c.981-.847 1.734-1.977 2.218-3.202.465-1.237.598-2.56.641-3.85.062-2.588-.349-5.145-1.17-7.554Z"/>
  </g>
  <g clip-path="url(#d)" transform="matrix(1.3333 0 0 -1.3333 -73.92 470.8696)">
    <path d="M219.2852 311.6406c.474-1.807.757-3.66.916-5.528.128-1.869.137-3.763-.141-5.64-.269-1.867-.701-3.775-1.687-5.454-1.01-1.652-2.453-3.04-4.15-3.872l-.054.084c1.378 1.284 2.499 2.678 3.328 4.271.796 1.601 1.406 3.31 1.774 5.101.366 1.792.457 3.643.431 5.487-.024 1.845-.173 3.703-.515 5.528z"/>
  </g>
  <g clip-path="url(#e)" transform="matrix(1.3333 0 0 -1.3333 -73.92 470.8696)">
    <path d="M230.1299 280.3115c1.346.971 2.501 2.219 3.347 3.63.827 1.419 1.345 3.026 1.334 4.653-.018 1.622-.428 3.221-1.145 4.685-.339.738-.826 1.408-1.232 2.111l-1.529 1.924.105-.093c-.867.535-1.793 1.022-2.703 1.504-.921.463-1.849.915-2.805 1.284-.957.357-1.939.654-2.936.751-.983.088-2.045-.101-2.728-.92l-.082.057c.513.989 1.74 1.452 2.82 1.451 1.107.041 2.185-.192 3.21-.512 2.068-.631 3.965-1.619 5.758-2.8l.071-.048.034-.045 1.499-2.078c.395-.763.869-1.48 1.202-2.271.699-1.571 1.077-3.293 1.029-5.017-.044-1.735-.686-3.403-1.609-4.82-.946-1.413-2.175-2.613-3.587-3.531Zm3.3642-9.8877-.575.266-.285.143-.142.078-.072.045-.039.029c-.006.004-.013.007-.028.025l-.016.024c.001.01-.023-.005-.008.088.053.087.086.065.083.069l.029.002c.025 0 .032-.003.039-.005l.048-.012.081-.025.154-.057.295-.124.579-.268c.762-.373 1.504-.785 2.232-1.222 1.445-.89 2.832-1.881 4.145-2.969 1.312-1.083 2.601-2.23 3.645-3.594 1.04-1.36 1.933-2.849 2.501-4.464l-.088-.048c-1.044 1.344-2.071 2.642-3.182 3.874-1.105 1.231-2.189 2.489-3.405 3.632-1.218 1.137-2.52 2.19-3.889 3.151-.682.486-1.38.949-2.101 1.375l-.546.308-.276.143-.139.064-.067.028-.029.009c-.006.003-.01.003 0 .002l.01.003c-.011.007.019-.019.069.059.009.087-.01.068-.003.073l-.005.008c-.007.007-.003.002.002-.001l.022-.02.06-.043.129-.085.267-.163.55-.308zm-40.539 11.8365c1.11-1.327 2.074-2.773 2.905-4.302.809-1.538 1.475-3.174 1.832-4.911.378-1.717.45-3.607-.195-5.332-.647-1.716-1.916-3.138-3.43-4.005l-.062.078c.558.667 1.122 1.297 1.541 2.019.417.716.782 1.448 1.005 2.229.447 1.549.607 3.21.354 4.871-.241 1.657-.79 3.281-1.494 4.831-.695 1.556-1.538 3.062-2.533 4.459zm55.0732-56.6285c-.489-2.203-1.333-4.325-2.475-6.292-1.164-1.945-2.667-3.746-4.583-5.058-.949-.662-1.99-1.202-3.088-1.602-1.1-.401-2.266-.579-3.424-.647-2.325-.031-4.619.43-6.681 1.378l.03.096c2.219-.398 4.424-.678 6.59-.476 2.152.192 4.278.752 6.132 1.918 1.855 1.151 3.382 2.811 4.601 4.657 1.225 1.846 2.187 3.897 2.8 6.047zm-4.5693 16.4405c-1.113-3.867-2.771-7.597-5.064-10.943-1.168-1.656-2.521-3.203-4.116-4.489-1.589-1.286-3.442-2.294-5.453-2.807-2.006-.522-4.14-.565-6.172-.156-2.026.43-3.964 1.192-5.744 2.203-3.558 2.037-6.593 4.8-9.245 7.825l.07.07c3.049-2.613 6.133-5.21 9.655-7.017.878-.447 1.75-.909 2.676-1.228.898-.402 1.849-.632 2.789-.883 1.898-.446 3.883-.466 5.781-.037 3.837.869 7.011 3.632 9.352 6.811 2.363 3.21 4.14 6.867 5.374 10.677z"/>
    <path fill="#a95926" d="M187.5459 259.356c0-1.587-1.517-2.875-3.388-2.875-1.872 0-3.388 1.288-3.388 2.875 0 1.588 1.516 2.875 3.388 2.875 1.871 0 3.388-1.287 3.388-2.875m-13.4307-.5186c-.578.578-.495 1.6.187 2.281.682.681 1.703.765 2.281.187.578-.578.494-1.6-.187-2.281-.681-.682-1.703-.766-2.281-.187m-4.4912 6.1924c-.578.578-.495 1.6.187 2.281.682.682 1.703.765 2.281.187.578-.578.494-1.599-.187-2.281-.681-.682-1.703-.765-2.281-.187m6.9737 19.5771c-.578.579-.495 1.6.187 2.281.682.682 1.703.765 2.281.187.578-.578.495-1.599-.187-2.281-.681-.682-1.702-.765-2.281-.187m18.0166 7.8267c-.578.578-.495 1.6.187 2.281.681.682 1.703.765 2.281.187.578-.578.495-1.599-.187-2.281-.681-.682-1.703-.765-2.281-.187m6.4912-30.2734c-.89.89-.761 2.462.288 3.511s2.62 1.177 3.511.287c.889-.89.761-2.462-.288-3.51-1.049-1.049-2.621-1.178-3.511-.288m16.7187-26.0835c-.474.474-.405 1.31.152 1.868.559.558 1.395.627 1.869.153.473-.474.405-1.31-.154-1.868-.557-.558-1.394-.626-1.867-.153m-11.0879-10.106c-.474.473-.404 1.31.153 1.868.558.558 1.395.626 1.868.153.473-.474.405-1.31-.153-1.868s-1.394-.627-1.868-.153m13.1846 50.5605c-.891.89-.762 2.462.287 3.511s2.621 1.177 3.511.287c.89-.889.762-2.461-.287-3.51s-2.621-1.178-3.511-.288m14.1426-15.9477c-.524.524-.448 1.45.169 2.068.618.618 1.544.693 2.068.169.524-.524.449-1.45-.17-2.068-.618-.617-1.544-.693-2.067-.169m4.0469 41.4204c-.524.524-.448 1.45.169 2.068.618.618 1.544.693 2.068.169.524-.524.449-1.45-.17-2.068-.618-.617-1.544-.693-2.067-.169m-25.9834 4.6021c-.524.524-.448 1.45.17 2.067.617.619 1.543.694 2.067.17.525-.524.449-1.45-.17-2.068-.617-.617-1.543-.693-2.067-.169m-28.1973 6.4296c-.262.262-.224.725.085 1.034.31.309.772.346 1.034.085.262-.263.224-.725-.085-1.035-.308-.308-.771-.346-1.034-.084m1.7666-12.7573c-.262.262-.224.725.085 1.034.309.309.771.346 1.034.085.262-.263.224-.725-.085-1.035-.308-.308-.771-.346-1.034-.084m11.7178-65.5683c-.89.89-.761 2.461.288 3.51 1.049 1.05 2.62 1.178 3.51.288.89-.89.762-2.462-.287-3.51-1.049-1.049-2.621-1.178-3.511-.288m24.6025-18.1514c-.89.89-.761 2.462.288 3.511s2.621 1.177 3.511.287c.889-.889.761-2.461-.288-3.51s-2.62-1.178-3.511-.288m23.7041 12.9311c-1.541.316-2.489 2.045-2.116 3.862.372 1.817 1.924 3.034 3.466 2.717 1.541-.316 2.489-2.045 2.116-3.862-.372-1.817-1.924-3.033-3.466-2.717m16.751 55.1915c-1.541.316-2.489 2.045-2.116 3.862.372 1.817 1.924 3.033 3.466 2.717 1.541-.316 2.489-2.045 2.116-3.862-.372-1.817-1.924-3.033-3.466-2.717m-122.978-13.1485c-1.542.316-2.489 2.045-2.117 3.862.373 1.816 1.925 3.033 3.466 2.717 1.542-.316 2.489-2.045 2.116-3.862-.372-1.817-1.923-3.033-3.465-2.717"/>
    <path fill="#e87838" d="M156.0786 316.3818c-.876.18-1.415 1.163-1.204 2.196.212 1.033 1.095 1.724 1.971 1.545.877-.18 1.415-1.163 1.204-2.196-.212-1.033-1.095-1.725-1.971-1.545m71.8667-1.1767c-1.269.26-2.048 1.683-1.741 3.177.306 1.495 1.583 2.496 2.851 2.236 1.269-.26 2.048-1.683 1.742-3.178-.307-1.494-1.583-2.495-2.852-2.235"/>
    <path fill="#a95926" d="M223.8623 324.4922c-.781.16-1.261 1.036-1.072 1.956.188.92.974 1.536 1.756 1.376.78-.16 1.26-1.036 1.071-1.956-.189-.92-.975-1.536-1.755-1.376m-32.8994 23.479c-1.205.247-1.945 1.598-1.654 3.018.291 1.42 1.504 2.371 2.708 2.124 1.205-.247 1.945-1.599 1.654-3.018-.291-1.42-1.504-2.371-2.708-2.124m100.8213-89.2539c-.644.132-1.039.854-.884 1.612.155.759.803 1.266 1.446 1.134.644-.132 1.04-.853.884-1.612-.155-.758-.802-1.266-1.446-1.134m-22.2363-38.3062c-1.113.228-1.797 1.477-1.528 2.788.268 1.312 1.388 2.19 2.502 1.962 1.112-.229 1.797-1.477 1.528-2.789-.27-1.311-1.39-2.189-2.502-1.961"/>
    <path fill="#e87838" d="M258.3721 253.9185c-1.113.228-1.797 1.476-1.528 2.788.268 1.311 1.388 2.19 2.502 1.961 1.113-.228 1.797-1.476 1.528-2.788-.27-1.311-1.39-2.19-2.502-1.961"/>
    <path fill="#a95926" d="M230.6514 191.8813c-1.748.358-2.823 2.32-2.4 4.38.421 2.061 2.182 3.441 3.93 3.083 1.749-.359 2.824-2.32 2.402-4.381-.423-2.061-2.183-3.44-3.932-3.082"/>
  </g>
  <g clip-path="url(#f)" transform="matrix(1.3333 0 0 -1.3333 -73.92 470.8696)">
    <path fill="none" stroke="#000" stroke-miterlimit="10" stroke-width="5" d="m85.8096 40.416 33.783 160.829s2.855 14.274 14.751 22.363c11.896 8.089 19.033 24.743 19.033 24.743s16.178-8.089 37.59-9.04c0 0 4.758-18.558 11.896-27.599 7.137-9.04 5.234-28.549 4.758-30.928-.476-2.379-31.88-150.837-31.88-150.837s-4.759-3.33-7.614-2.854c-2.855.475-20.936-13.799-20.936-13.799s-5.234-12.372-13.323.476c0 0-30.453 17.605-35.687 19.033 0 0-11.895-5.235-12.371 7.613z"/>
    <path fill="#cae5c2" d="m85.8096 40.416 33.783 160.829s2.855 14.274 14.751 22.363c11.896 8.089 19.033 24.743 19.033 24.743s16.178-8.089 37.59-9.04c0 0 4.758-18.558 11.896-27.599 7.137-9.04 5.234-28.549 4.758-30.928-.476-2.379-31.88-150.837-31.88-150.837s-4.759-3.33-7.614-2.854c-2.855.475-20.936-13.799-20.936-13.799s-5.234-12.372-13.323.476c0 0-30.453 17.605-35.687 19.033 0 0-11.895-5.235-12.371 7.613"/>
  </g>
  <g clip-path="url(#g)" transform="matrix(1.3333 0 0 -1.3333 -73.92 470.8696)">
    <path d="M139.8789 175.3408s-3.954 1.034-4.807 1.953c-.852.919-3.247 2.117-3.247 2.117s-1.927 1.846 2.658 5.889c4.586 4.043.519 7.964 3.054 10.531 2.535 2.567 6.924 7.282 14.831 5.214 7.907-2.068 13.976-5.843 14.376-12.954 0 0-1.411-2.166-1.239-3.502.172-1.337 2.468-5.193-.288-7.752 0 0 2.5-4.307-1.281-4.609-3.781-.303-8.014-.811-8.014-.811l-2.799-9.654s-1.73 1.174-2.132 2.298c-.402 1.123-2.986-2.773-2.986-2.773l-1.615 4.275s-3.52-5.192-3.47-3.864c.049 1.329-.635 5.164-.635 5.164s-.212.316-.784-.655c-.397-.673-1.448-2.728-1.929-2.816-.503-.091-.074 3.119-.074 3.119l-3.107-1.464s3.422 8.523 3.488 10.294"/>
    <path d="M125.7852 166.1074s-3.412 3.676-.68 5.569c2.732 1.895-.081 3.774.395 4.643.476.869 4.782-2.617 4.92-4.84.139-2.224 9.282-18.753 11.956-18.409 2.674.344 18.753 9.282 18.753 9.282s4.882 6.027 5.939 4.657c1.058-1.37.533-3.568-.14-3.764-.672-.197 5.905-2.216.926-4.913-4.979-2.699-1.871-2.592-1.871-2.592s-.55-2.862-5.988.001l-15.339-6.97s7.397-9.811 7.568-11.148c0 0 7.054-1.15 6.537-3.126-.517-1.977-2.518-2.124-2.354-3.683.163-1.559-.223-5.979-2.569-3.453-2.345 2.527-3.788 5.464-3.788 5.464s-6.666 11.558-9.111 11.428c-2.445-.131-12.314-9.079-15.201-9.193-2.887-.114-3.206 3.225-2.082 3.626 0 0-8.4.757-2.067 4.069 6.333 3.313 15.783 6.953 15.783 6.953s-.328 3.117-.746 3.797c-.418.682-6.732 9.788-7.798 10.936-1.066 1.148-3.043 1.666-3.043 1.666"/>
    <path fill="#cae5c2" d="m136.7886 187.2954 1.33-.443s.886-2.881 3.545-1.108c0 0 1.33.664 1.773-1.109.444-1.773-2.438-2.659-2.438-3.546 0-.886-3.102-.664-3.102-.664s0 2.216-1.551 1.994c-1.552-.221 0 3.546.443 4.876m4.8755-13.7407s3.324 9.086 4.654 7.757c1.33-1.33 4.654-10.638 3.324-9.751-1.33.887-2.881 3.767-3.767 3.102-.887-.665-3.546-2.88-4.211-1.108m9.3081 12.6323 2.659-1.108s1.109-2.66 2.66-2.216c1.551.443 2.659-.665 2.659-.665s-1.773-2.659-2.881-3.103c-1.108-.443-2.216-.443-3.324.887-1.108 1.33-.665 2.659-.665 2.659s-2.438 1.995-1.108 3.546"/>
  </g>
  <g clip-path="url(#h)" transform="matrix(1.3333 0 0 -1.3333 -73.92 470.8696)">
    <path fill="#166734" d="m151.5269 42.2793 22.056-11.235 23.513 109.863s-9.988-9.779-24.761-13.94c0 0-21.016-79.486-20.808-84.688"/>
    <path fill="none" stroke="#1f5127" stroke-miterlimit="10" stroke-width=".25" d="m151.5269 42.2793 22.056-11.235 23.513 109.863s-9.988-9.779-24.761-13.94c0 0-21.016-79.486-20.808-84.688Z"/>
    <path fill="#188e47" d="m137.5859 49.7705 34.957-18.311-8.74-3.329-9.779-7.907s-8.947-7.491-8.947-8.115c0-.624-5.826-1.456-5.826-1.456l-5.619 6.034s-1.872 6.242-1.248 7.074c.624.832 5.202 26.01 5.202 26.01"/>
    <path fill="#7bc57c" d="m102.2129 95.9629-12.693-56.389s2.289-2.496 4.162-2.913c1.872-.416 4.577.417 4.577.417l34.333-19.767 3.329-3.537 10.17 42.531-19.325 39.658s-18.935 2.705-19.559 2.705c-.624 0-4.994-2.705-4.994-2.705"/>
  </g>
  <g clip-path="url(#i)" transform="matrix(1.3333 0 0 -1.3333 -73.92 470.8696)">
    <path fill="#7bc57c" d="m129.4707 82.0225-3.988-26.85 18.761-9.772s-1.785.393-6.242 12.276c-4.345 11.589-4.369 22.265-8.531 24.346"/>
    <path fill="#186835" d="M152.5322 116.7568c2.569 2.855 5.222 5.63 7.798 8.473l.961 1.068.478.531c.17.214.436.376.658.479.933.419 1.904.577 2.88.665 1.936.147 3.987-.106 5.692-1.169l-.193.02c4.303 1.581 8.562 3.305 12.742 5.196 2.087.952 4.159 1.941 6.165 3.053 1.001.557 1.99 1.14 2.933 1.79.931.657 1.862 1.367 2.503 2.315l.043-.025c-.636-.973-1.56-1.701-2.485-2.375-.938-.669-1.92-1.27-2.916-1.844-1.994-1.146-4.052-2.177-6.131-3.155-4.165-1.949-8.41-3.712-12.702-5.368l-.098-.037-.096.058c-1.593.966-3.557 1.179-5.417 1.046-.929-.081-1.882-.248-2.704-.619-.209-.104-.366-.194-.498-.359l-.486-.538-.994-1.045c-2.675-2.758-5.341-5.518-8.097-8.195Z"/>
  </g>
  <g fill="#186835" clip-path="url(#j)" transform="matrix(1.3333 0 0 -1.3333 -73.92 470.8696)">
    <path d="m91.9199 37.9023 8.294 4.506 8.33 4.435c5.547 2.969 11.143 5.844 16.722 8.75l.21.11.218-.107c3.76-1.848 7.508-3.72 11.242-5.62l11.219-5.668c7.45-3.835 14.905-7.661 22.294-11.619-7.6 3.536-15.134 7.204-22.672 10.863l-11.265 5.575c-3.76 1.847-7.507 3.723-11.241 5.622l.428.003c-5.608-2.851-11.2-5.733-16.841-8.521l-8.45-4.199Zm13.3355 23.4659 2.271 14.529c.366 2.423.757 4.843 1.173 7.258.452 2.409.895 4.82 1.444 7.213l.049-.008c-.267-2.44-.638-4.863-1-7.288-.399-2.418-.823-4.832-1.271-7.241l-2.617-14.472Zm7.4692 55.0703c2.162 16.212 4.572 32.395 7.515 48.493 1.482 8.047 3.018 16.095 5.406 23.972.635 1.958 1.312 3.91 2.401 5.755.652.974 1.444 1.566 2.136 2.307.703.726 1.391 1.47 2.04 2.247 2.64 3.085 4.582 6.696 6.248 10.432l.091-.041c-.754-1.896-1.492-3.815-2.45-5.639-.951-1.825-2.082-3.559-3.347-5.19-.628-.819-1.302-1.604-2.008-2.357-.69-.761-1.521-1.462-1.98-2.218-.954-1.702-1.601-3.657-2.177-5.594-1.21-3.877-2.135-7.859-3.032-11.838-.912-3.978-1.75-7.977-2.542-11.985-1.572-8.02-2.998-16.071-4.344-24.134-1.361-8.062-2.652-16.136-3.858-24.224Zm61.6841 94.8218c.734-5.198 1.251-10.425 1.58-15.666.322-5.24.456-10.499.206-15.753-.12-2.627-.369-5.251-.772-7.858-.158-1.308-.516-2.588-.765-3.885-.351-1.27-.756-2.549-1.167-3.791-1.728-4.929-3.145-9.988-4.549-15.037-1.4-5.053-2.722-10.129-4.042-15.205l-3.947-15.234c-2.683-10.143-5.292-20.306-8.051-30.434l-.097.024c2.204 10.264 4.671 20.465 7.18 30.658l3.958 15.239c1.382 5.064 2.767 10.127 4.229 15.169 1.455 5.045 2.918 10.088 4.709 15.046.425 1.243.823 2.465 1.184 3.717.256 1.276.622 2.53.79 3.827.424 2.575.697 5.179.84 7.791.316 5.225.25 10.474-.006 15.709-.262 5.236-.712 10.467-1.379 15.669z"/>
    <path d="m144.8579 46.3926-3.61-15.35c-.59-2.561-1.203-5.116-1.842-7.666-.674-2.54-1.34-5.083-2.108-7.599l-.049.011c.491 2.586 1.086 5.146 1.672 7.708a418.763 418.763 0 0 0 1.938 7.642l3.95 15.266z"/>
  </g>
  <g clip-path="url(#k)" transform="matrix(1.3333 0 0 -1.3333 -73.92 470.8696)">
    <path fill="#186835" d="m144.6587 15.1055 2.241 10.039 2.324 10.019 4.653 20.036 4.833 19.992 4.92 19.973 9.801 39.953 2.463 9.985c.838 3.325 1.618 6.658 2.329 10.012.719 3.35 1.387 6.712 1.957 10.091.287 1.688.542 3.382.741 5.083.171 1.699.38 3.413.232 5.116l.099.011c.167-1.721-.027-3.438-.181-5.144-.183-1.706-.423-3.405-.693-5.099-.538-3.388-1.174-6.759-1.861-10.12-.679-3.36-1.429-6.712-2.233-10.043l-2.366-10.008-9.51-40.024-4.735-20.017-4.824-19.996-5.003-19.952-2.503-9.975-2.587-9.955Zm57.6763 191c-.608-.907-1.141-1.954-1.598-2.998-.455-1.053-.854-2.136-1.17-3.247-.309-1.111-.584-2.239-.751-3.386-.194-1.145-.283-2.305-.344-3.469-.022 1.164-.017 2.334.095 3.499.087 1.168.282 2.326.515 3.478.24 1.151.567 2.285.958 3.4.4 1.12.846 2.198 1.46 3.273zM127.7632 82.8691l-3.088-28.411-.993.126zm43.019 159.854s-1.174-10.621 2.17-12.634c0 0-2.092 10.574 1.346 11.732z"/>
    <path fill="#4eb965" d="M154.397 248.3179s-3.425-10.083-11.337-17.26c-7.277-6.599-12.015-11.168-12.015-11.168s-7.106-10.829-8.629-13.029c-1.523-2.2-5.584-21.152-5.584-21.152L86.373 38.3239l-3.046 4.4 20.475 89.007s15.906 76.483 15.906 76.991c0 .508 9.476 13.537 9.476 13.537l12.86 12.014 8.969 15.568z"/>
    <path fill="#cae5c2" d="M163.1338 267.916s-7.389-2.956-2.771-5.542 19.951-9.421 28.818-7.574c0 0 6.097 2.955-.369 4.433 0 0 2.032 2.402 1.847 3.88-.185 1.478 7.574-2.217 7.944-5.173.369-2.955-1.294-11.638-1.294-11.638s-4.618-4.618-8.866-4.803c-4.249-.185-29.373 2.771-37.871 11.638 0 0 1.293 13.116 3.695 14.409 2.401 1.293 4.249 2.771 8.867.37"/>
    <path fill="#8fb681" d="M180.6392 241.1729s7.667 6.572 5.875 13.642l2.389 1.095 4.581 6.672 2.191-1.195s2.688-1.793 2.688-2.191c0-.398.697-2.39.697-2.689 0-.298-.697-7.069-1.095-8.463-.399-1.394-.299-3.087-.299-3.087s-2.016-1.132-5.975-2.987c-3.186-1.494-7.567-1.494-7.866-1.295-.299.2-3.186.498-3.186.498"/>
  </g>
  <g clip-path="url(#l)" transform="matrix(1.3333 0 0 -1.3333 -73.92 470.8696)">
    <path d="M163.084 267.9185c-.884.364-1.839.797-2.829.992-.984.22-2.012.194-2.961-.103-.954-.293-1.813-.834-2.705-1.344-.454-.203-.692-.562-.939-1.003-.23-.431-.413-.898-.575-1.373-.633-1.913-.999-3.926-1.327-5.932-.312-2.01-.571-4.037-.77-6.058l-.112.322c2.948-2.926 6.841-4.772 10.74-6.277 3.924-1.517 8.003-2.648 12.124-3.56 4.123-.887 8.302-1.619 12.489-1.984 1.055-.071 2.077-.167 3.037.066.976.217 1.926.631 2.828 1.128 1.801 1.006 3.467 2.333 4.94 3.784l-.103-.2c.41 2.162.774 4.342 1.056 6.523.135 1.091.253 2.185.304 3.272.029.543.031 1.087-.015 1.606-.021.481-.263.918-.567 1.339-.624.832-1.482 1.522-2.371 2.131-.898.603-1.858 1.134-2.856 1.532-.483.187-1.044.38-1.455.357-.111-.015-.078-.034-.055.025l.017-.351c-.012-.303-.045-.599-.111-.88-.254-1.132-.702-2.156-1.212-3.167l-.19.414c.619-.15 1.238-.322 1.839-.6.297-.151.599-.308.859-.584.27-.257.416-.761.262-1.141-.315-.726-.899-1.078-1.431-1.433-.553-.338-1.121-.616-1.721-.859l-.02-.008-.021-.004c-3.245-.615-6.53-.188-9.688.449-3.167.669-6.254 1.649-9.276 2.778-3.019 1.141-5.982 2.43-8.848 3.915-.702.389-1.456.718-2.06 1.299-.292.289-.539.661-.59 1.092-.041.432.122.848.352 1.187.475.683 1.151 1.165 1.831 1.596.675.407 1.444.833 2.13 1.054m.1-.005c-.8-.401-1.472-.708-2.163-1.156-.667-.432-1.329-.92-1.771-1.574-.215-.325-.354-.705-.315-1.083.049-.378.274-.714.552-.983.568-.54 1.322-.866 2.028-1.245 2.871-1.449 5.841-2.704 8.861-3.807 3.022-1.093 6.106-2.033 9.252-2.663 3.134-.602 6.387-.97 9.5-.351l-.041-.012c.559.231 1.116.509 1.628.829.496.317 1.02.713 1.196 1.162.176.414-.31.803-.845 1.041-.537.244-1.131.407-1.728.545l-.356.083.165.332c.478.963.912 1.989 1.131 3.021.059.258.083.514.092.762l-.01.18c.005.042-.026.135.004.298.026.15.151.301.269.359.116.064.223.087.314.097.702.028 1.208-.194 1.753-.383 1.06-.414 2.05-.953 2.992-1.574.934-.63 1.838-1.333 2.555-2.268.344-.461.671-1.036.711-1.672.057-.581.056-1.147.032-1.707-.044-1.122-.154-2.23-.283-3.334-.267-2.208-.613-4.395-1.01-6.582l-.021-.118-.082-.082c-1.535-1.533-3.201-2.894-5.094-3.98-.947-.533-1.956-.991-3.05-1.247-1.115-.277-2.246-.177-3.297-.119-4.269.321-8.472 1.022-12.637 1.93-4.159.919-8.28 2.057-12.272 3.598-3.947 1.589-7.897 3.516-10.966 6.645l-.132.135.02.187c.229 2.047.521 4.074.897 6.096.384 2.018.803 4.036 1.506 5.994.181.487.384.971.647 1.436.133.231.283.459.472.668.172.213.473.396.683.491.899.467 1.81.996 2.83 1.268 1.016.277 2.103.258 3.103-.007 1.005-.267 1.944-.646 2.88-1.21"/>
    <path fill="none" stroke="#1f5127" stroke-miterlimit="10" stroke-width=".25" d="M104.2368 106.7051s29.002 16.344 31.995 15.999c2.979-.344 8.581-2.398 9.315-2.758 2.574-1.262 7.884-1.444 10.458-.266-.576-.264-1.839-3.327-2.561-4.015-1.417-1.351-2.952-2.582-4.532-3.734-3.274-2.388-6.616-4.812-10.187-6.717-3.93-2.097-7.35-3.317-11.658-4.449-6.773-1.782-19.858-2.061-22.83 5.94Z"/>
    <path fill="#1c4d24" d="M104.2368 106.7051s29.002 16.344 31.995 15.999c2.979-.344 8.581-2.398 9.315-2.758 2.574-1.262 7.884-1.444 10.458-.266-.576-.264-1.839-3.327-2.561-4.015-1.417-1.351-2.952-2.582-4.532-3.734-3.274-2.388-6.616-4.812-10.187-6.717-3.93-2.097-7.35-3.317-11.658-4.449-6.773-1.782-19.858-2.061-22.83 5.94"/>
    <path fill="#4eb965" d="M141.8101 76.7998s4.671 3.27 6.384 3.736c1.713.468 1.246-2.023 1.246-2.023s-8.408-20.865-8.253-24.291c0 0-3.114 16.193-2.647 21.177.467 4.982 3.27 1.401 3.27 1.401"/>
    <path fill="#127d3f" d="M108.8003 101.5566s7.163-4.359 10.588-4.516c3.426-.155-3.581-.933-4.983-.778-1.401.156 17.128-11.366 18.686-15.415 1.556-4.048 2.491-11.678 5.605-12.768 3.114-1.089 16.349 42.665 15.882 42.353-.467-.312-4.827-3.426-4.515-2.336.311 1.09 9.809 14.948 10.432 15.882.623.934-9.966-12.923-17.906-16.037 0 0-9.654-7.475-18.841-8.098-9.187-.622-14.635 1.245-14.948 1.713"/>
    <path fill="#98cc6c" d="M117.1055 76.6699c-.732-3.31-2.417-5.752-3.764-5.454-1.346.298-1.844 3.223-1.112 6.533.732 3.31 2.417 5.752 3.764 5.454 1.346-.298 1.844-3.222 1.112-6.533"/>
    <path fill="none" stroke="#33b14a" stroke-miterlimit="10" stroke-width=".25" d="M117.1055 76.6699c-.732-3.31-2.417-5.752-3.764-5.454-1.346.298-1.844 3.223-1.112 6.533.732 3.31 2.417 5.752 3.764 5.454 1.346-.298 1.844-3.222 1.112-6.533Z"/>
    <path fill="#98cc6c" d="M123.7344 76.5801c-.366-1.655-1.208-2.876-1.882-2.728-.673.15-.922 1.612-.556 3.267.366 1.655 1.209 2.876 1.882 2.727.673-.149.922-1.612.556-3.266"/>
    <path fill="none" stroke="#33b14a" stroke-miterlimit="10" stroke-width=".25" d="M123.7344 76.5801c-.366-1.655-1.208-2.876-1.882-2.728-.673.15-.922 1.612-.556 3.267.366 1.655 1.209 2.876 1.882 2.727.673-.149.922-1.612.556-3.266Z"/>
    <path fill="#186835" d="M131.3276 61.5156c0-1.695-.65-3.069-1.453-3.069-.802 0-1.452 1.374-1.452 3.069 0 1.695.65 3.069 1.452 3.069.803 0 1.453-1.374 1.453-3.069"/>
    <path fill="#98cc6c" d="M121.564 66.208c-.732-3.31-.871-6.206-2.217-5.908-1.346.298-.596 2.806.136 6.116.732 3.311 1.169 6.169 2.516 5.871 1.346-.298.297-2.768-.435-6.079"/>
    <path fill="none" stroke="#33b14a" stroke-miterlimit="10" stroke-width=".25" d="M121.564 66.208c-.732-3.31-.871-6.206-2.217-5.908-1.346.298-.596 2.806.136 6.116.732 3.311 1.169 6.169 2.516 5.871 1.346-.298.297-2.768-.435-6.079Z"/>
    <path fill="#186835" d="M107.793 90.0615c0-.41-.554-.743-1.237-.743s-1.237.333-1.237.743c0 .409.554.742 1.237.742s1.237-.333 1.237-.742m-.7422-33.4873c0-.547-.536-.989-1.196-.989-.66 0-1.196.442-1.196.989 0 .547.536.99 1.196.99.66 0 1.196-.443 1.196-.99m.9897-3.5879c0-.523-.517-.948-1.155-.948-.637 0-1.155.425-1.155.948 0 .523.518.948 1.155.948.638 0 1.155-.425 1.155-.948"/>
    <path fill="#15381f" d="M122.7632 39.4189c0-.82-.72-1.485-1.608-1.485-.889 0-1.609.665-1.609 1.485 0 .819.803.577 1.691.577s1.526.242 1.526-.577m-3.6704-4.9902c0-.479-.738-.866-1.649-.866-.912 0-1.65.387-1.65.866s.738 1.525 1.65 1.525c.911 0 1.649-1.046 1.649-1.525M129.98 31.624c0-.66-.572-1.196-1.278-1.196-.706 0-2.021.247-2.021.908 0 .66 1.603.989 2.309.989.706 0 .99-.041.99-.701m-5.6084 5.7324s.907.577 1.155-.165c.247-.742 0-.742.329-.989.33-.248.99-1.073.083-.825-.907.247-2.145.412-2.227.742-.082.33.66 1.237.66 1.237m4.5361 1.1543s-1.649-.742-1.237-1.484c.412-.743.412-1.155.907-1.073.495.083 1.155.743 1.32 1.156.165.412.247 1.731-.99 1.401m-13.8564.1651s.577 1.65 2.145.743m-.083 2.3917s1.567 1.154 2.145-.412"/>
    <path fill="#12381c" d="M111.1357 43.0869s-.951-.864-.126-1.359 1.485-.578 1.897.578c.413 1.154-.857 1.199-1.771.781"/>
    <path fill="#98cc6c" d="M144.3018 75.0869c0-3.741-2.191-6.618-4.126-6.618-1.936 0-3.504 3.033-3.504 6.773 0 3.741 2.269 6.54 4.204 6.54 1.935 0 3.426-2.955 3.426-6.695"/>
    <path fill="none" stroke="#33b14a" stroke-miterlimit="10" stroke-width=".25" d="M144.3018 75.0869c0-3.741-2.191-6.618-4.126-6.618-1.936 0-3.504 3.033-3.504 6.773 0 3.741 2.269 6.54 4.204 6.54 1.935 0 3.426-2.955 3.426-6.695Z"/>
    <path fill="#98cc6c" d="M149.9072 95.1729c0-3.74-1.958-6.033-3.893-6.033-1.935 0-2.803 2.137-2.803 5.878 0 3.74 1.335 4.048 3.27 4.048s3.426-.152 3.426-3.893"/>
    <path fill="none" stroke="#33b14a" stroke-miterlimit="10" stroke-width=".25" d="M149.9072 95.1729c0-3.74-1.958-6.033-3.893-6.033-1.935 0-2.803 2.137-2.803 5.878 0 3.74 1.335 4.048 3.27 4.048s3.426-.152 3.426-3.893Z"/>
    <path fill="#98cc6c" d="M131.0664 92.6094c0-1.852-.963-3.354-2.15-3.354-1.188 0-2.151 1.502-2.151 3.354 0 1.853.963 3.354 2.151 3.354 1.187 0 2.15-1.501 2.15-3.354"/>
    <path fill="none" stroke="#33b14a" stroke-miterlimit="10" stroke-width=".25" d="M131.0664 92.6094c0-1.852-.963-3.354-2.15-3.354-1.188 0-2.151 1.502-2.151 3.354 0 1.853.963 3.354 2.151 3.354 1.187 0 2.15-1.501 2.15-3.354Z"/>
    <path fill="#98cc6c" d="M148.3501 101.8682c0 1.548-.523 2.803-1.168 2.803-.645 0-1.168-1.255-1.168-2.803s.523-2.803 1.168-2.803c.645 0 1.168 1.255 1.168 2.803"/>
    <path fill="none" stroke="#33b14a" stroke-miterlimit="10" stroke-width=".25" d="M148.3501 101.8682c0 1.548-.523 2.803-1.168 2.803-.645 0-1.168-1.255-1.168-2.803s.523-2.803 1.168-2.803c.645 0 1.168 1.255 1.168 2.803Z"/>
    <path fill="#98cc6c" d="M136.6719 97.5088c0-.603-.349-1.09-.778-1.09-.43 0-.779.487-.779 1.09 0 .602.349 1.09.779 1.09.429 0 .778-.488.778-1.09"/>
    <path fill="none" stroke="#33b14a" stroke-miterlimit="10" stroke-width=".25" d="M136.6719 97.5088c0-.603-.349-1.09-.778-1.09-.43 0-.779.487-.779 1.09 0 .602.349 1.09.779 1.09.429 0 .778-.488.778-1.09Z"/>
    <path fill="#98cc6c" d="M140.4087 93.5381c0-.817-.522-1.479-1.167-1.479s-1.168.662-1.168 1.479c0 .817.523 1.479 1.168 1.479.645 0 1.167-.662 1.167-1.479"/>
    <path fill="none" stroke="#33b14a" stroke-miterlimit="10" stroke-width=".25" d="M140.4087 93.5381c0-.817-.522-1.479-1.167-1.479s-1.168.662-1.168 1.479c0 .817.523 1.479 1.168 1.479.645 0 1.167-.662 1.167-1.479Z"/>
    <path fill="#98cc6c" d="M139.4746 101.4014c0-.43-.174-.778-.389-.778-.215 0-.389.348-.389.778 0 .43.174.778.389.778.215 0 .389-.348.389-.778m-6.0727-2.7246c0-1.161-.662-2.103-1.479-2.103-.817 0-1.479.942-1.479 2.103 0 1.16.662 2.102 1.479 2.102.817 0 1.479-.942 1.479-2.102"/>
    <path fill="none" stroke="#33b14a" stroke-miterlimit="10" stroke-width=".25" d="M133.4019 98.6768c0-1.161-.662-2.103-1.479-2.103-.817 0-1.479.942-1.479 2.103 0 1.16.662 2.102 1.479 2.102.817 0 1.479-.942 1.479-2.102Z"/>
    <path fill="#d5e494" d="M163.9165 257.5972c.271-.083 5.271-1.787 5.271-1.787s-2.29-2.788-.796-4.879c1.05-1.471-1.804-2.755-1.804-2.755s-11.425 3.418-12.569 6.151c-1.145 2.734.381 7.249.635 6.995.255-.255 6.867-2.989 9.263-3.725"/>
  </g>
  <g clip-path="url(#m)" transform="matrix(1.3333 0 0 -1.3333 -73.92 470.8696)">
    <path fill="#15381f" d="M159.6978 268.5649c-1.102 1.277-5.435-2.259-5.998-4.509-.562-2.25-2.579-7.443-1.595-9.13.984-1.688 11.952-6.328 14.483-6.75 2.531-.422-9.421 3.375-9.702 4.922-.281 1.547 4.921.14 4.921.14s-8.296 5.484-6.468 6.047c1.828.562 9.14-1.828 8.578-1.688-.563.141-8.859 4.922-7.594 6.89 1.266 1.969 3.375 1.969 3.375 1.969s1.378.512 0 2.109"/>
    <path fill="#12381d" d="M95.1826 40.5137c4.033 2.255 8.086 4.474 12.151 6.67 4.073 2.183 8.139 4.377 12.253 6.488 1.031.525 2.062 1.045 3.109 1.548l.793.369.412.175.231.084c.066.01.049.033.229.034.141-.014.106-.029.168-.044.615-.238 1.091-.466 1.635-.706 2.115-.939 4.199-1.934 6.277-2.945 4.169-1.991 8.293-4.078 12.367-6.269-4.263 1.795-8.48 3.683-12.663 5.643-2.1.962-4.191 1.942-6.273 2.934-.507.238-1.076.506-1.532.697-.007.005-.105.041-.037.02.107.004.023-.003.019-.009l-.177-.063-.386-.162-.78-.357c-1.038-.491-2.071-1.005-3.103-1.522-8.256-4.135-16.45-8.408-24.693-12.585m55.357 2.6201 5.443-2.509 5.406-2.586 5.362-2.674 5.328-2.746c-1.864.729-3.677 1.573-5.495 2.401-1.815.835-3.611 1.712-5.415 2.57-1.785.897-3.581 1.772-5.355 2.691-1.771.924-3.55 1.836-5.274 2.853"/>
    <path fill="#15381f" d="M191.8291 258.2617s4.575-.529 2.741-2.633c-2.466-2.827-5.836-2.637-9.702-2.953-1.567-.128 9.421.844 9.14-.562-.282-1.407-1.125-2.25-2.11-2.25-.984 0-6.047-.984-6.047-.984l-.549-.847s7.862 1.128 7.862-.278c0-1.407-1.688-2.11-2.109-2.11h-13.781c-1.265 0 7.687-1.625 9.937-1.485 2.25.141 7.064.92 8.344 2.188 1.955 1.939 3.207 10.556 2.082 11.54-1.125.985-4.332 4.49-5.457 3.366-1.125-1.125-.351-2.992-.351-2.992"/>
    <path fill="#166734" d="M134.0869 92.7695c.084.435.703-22.288 4.103-27.905 3.4-5.617.192-1.458.192-1.458l-2.549 1.554s-4.407 14.061-1.746 27.809"/>
    <path fill="#ebf5ec" d="M158.8569 265.9907c-.577-.647-.904-1.545-.707-2.371.178-.829.78-1.494 1.434-2.019.643-.549 1.429-.929 2.206-1.306.783-.369 1.586-.702 2.395-1.02 3.242-1.263 6.554-2.371 9.9-3.349 1.667-.502 3.343-.993 5.029-1.386 1.657-.403 3.418-.49 5.139-.61 1.727-.073 3.478-.051 5.149.344.829.199 1.659.498 2.285 1.075.652.56.896 1.472.795 2.338.077-.429.098-.877-.001-1.315-.099-.438-.342-.84-.652-1.166-.63-.66-1.484-1.028-2.329-1.291-1.721-.481-3.504-.57-5.264-.567-.881.005-1.762.051-2.639.136-.866.075-1.772.184-2.632.387-1.722.381-3.411.847-5.095 1.338-3.346 1.042-6.676 2.147-9.906 3.532-.804.352-1.604.72-2.387 1.126-.774.416-1.569.833-2.238 1.449-.651.597-1.254 1.355-1.389 2.269-.158.914.271 1.819.907 2.406"/>
    <path fill="#ebf5ec" d="M157.1396 268.8545c-.622-.629-1.422-1.042-2.077-1.624-.676-.569-1.086-1.368-1.375-2.191-.29-.824-.527-1.684-.826-2.506-.265-.834-.444-1.693-.598-2.557l-.923-5.198c-.068-.421-.111-.86.061-1.213.171-.367.466-.691.765-1.003.622-.635 1.202-1.268 1.915-1.774 1.399-1.038 2.998-1.777 4.625-2.425 1.634-.641 3.285-1.26 4.938-1.855 3.309-1.19 6.661-2.262 10.073-3.08 3.407-.839 6.872-1.496 10.375-1.595 1.744-.036 3.512.015 5.218.342 1.701.339 3.362.977 4.76 2.005 1.414 1.018 2.446 2.478 3.039 4.119.625 1.629.9 3.378.975 5.124.034.874.008 1.752-.072 2.626-.049.431-.068.884-.185 1.291-.125.417-.297.821-.506 1.205-.819 1.55-2.261 2.75-3.945 3.285 1.693-.501 3.174-1.679 4.034-3.235.22-.386.403-.792.54-1.217.132-.437.16-.874.22-1.313.102-.878.149-1.763.135-2.649-.023-1.769-.315-3.546-.932-5.217-.588-1.676-1.657-3.221-3.109-4.28-1.437-1.076-3.14-1.743-4.881-2.105-1.754-.35-3.53-.413-5.301-.391-3.547.071-7.05.707-10.482 1.522-3.434.839-6.79 1.953-10.099 3.169-1.655.611-3.298 1.242-4.936 1.901-1.633.666-3.257 1.428-4.684 2.506-.725.522-1.337 1.198-1.94 1.825-.304.323-.615.66-.816 1.096-.21.46-.143.95-.072 1.384l.968 5.196c.176.865.377 1.729.665 2.568.322.827.57 1.661.884 2.492.309.822.751 1.638 1.45 2.196.678.573 1.482.962 2.119 1.576"/>
  </g>
  <g clip-path="url(#n)" transform="matrix(1.3333 0 0 -1.3333 -73.92 470.8696)">
    <path d="M161.0122 268.6343s2.798.127 3.37-1.653c.572-1.781.89-1.208.318-2.417-.572-1.208-1.462-3.497-1.971-3.179-.509.318-3.116 0-3.815 1.781-.7 1.78 1.017 3.624 1.589 3.624.572 0 1.272.063.509 1.844m25.5015-13.8198s3.048 6.253 3.302 7.906c.255 1.654 4.641.064 4.769-.572.127-.636-3.137-3.245-2.967-3.848.169-.603.233-2.383-1.23-2.892-1.462-.509-3.874-.594-3.874-.594"/>
    <path fill="#fde9e9" d="M157.0894 246.7705s-10.753-16.944-15.966-20.528c-5.214-3.585-16.293-19.225-17.922-24.765-1.629-5.539-31.933-159.99-31.933-159.99s-.652-6.192 7.169-3.585c0 0 32.91-15.966 35.191-18.573 0 0 .879-1.328 2.22-2.998 2.467-3.078 6.573-6.728 10.162-1.238l20.535 16.917s4.555-.625 6.185 2.634c1.629 3.258 31.28 143.698 31.933 155.103.651 11.404-7.495 24.438-9.449 28.023-1.956 3.584-8.601 16.645-7.297 21.858l3.049-.318s6.202-22.844 13.697-30.013c0 0 5.213-13.685 3.91-22.157-.325-2.113-.783-4.21-1.201-6.306-.846-4.245-1.714-8.486-2.584-12.725-1.197-5.827-2.403-11.653-3.612-17.478-1.423-6.854-2.852-13.709-4.284-20.561-1.531-7.327-3.065-14.654-4.601-21.98-1.519-7.243-3.04-14.486-4.563-21.728-1.389-6.605-2.778-13.208-4.17-19.812-1.138-5.409-2.279-10.817-3.42-16.226l-2.316-10.974c-.514-2.434-.736-4.964-1.29-7.366-.15-.652-.344-1.314-.75-1.846-.355-.465-.849-.804-1.355-1.097-1.37-.796-2.88-1.318-4.42-1.667-1.301-.295-2.686-.25-3.816-.933-1.232-.745-2.416-1.589-3.608-2.395-3.766-2.546-7.504-5.165-11.034-8.033-1.04-.846-3.385-2.254-3.91-3.526 0-.001-4.561-11.079-11.404-3.259l-2.368 4.541s-35.077 19.557-35.105 19.571c-.234.131-2.292-.982-2.656-1.107-3.168-1.078-5.891-.814-8.493 1.45-2.427 2.112-1.773 5.32-1.232 8.129 1.628 8.473 33.236 160.969 33.236 160.969 1.91 4.688 4.338 9.295 7.235 13.446 2.775 3.973 7.133 6.914 10.653 10.274 6.056 5.784 14.013 13.319 15.674 21.898 0 0 1.955.326 3.91-1.629"/>
    <path fill="#cececf" d="m98.5352 89.748-10.505-52.666-.082.295c1.464-1.445 3.433-2.568 5.48-2.671.995-.048 2.086.205 3.169.313 1.089.126 2.153.252 3.285.29l.085.001.087-.043c4.024-2.059 8.006-4.199 12.006-6.304 3.988-2.129 7.967-4.275 11.928-6.454l-.035-.068c-4.068 1.974-8.118 3.982-12.16 6.006-4.029 2.048-8.077 4.061-12.082 6.155l.171-.042c-1.035-.033-2.13-.156-3.195-.281-1.072-.101-2.119-.362-3.298-.315-1.152.044-2.252.428-3.248.942-.997.532-1.891 1.193-2.689 2.016l-.118.122.036.173 11.091 52.546zm29.3256-69.1904 4.098-2.667 1.024-.667.512-.334c.083-.077.172-.059.267-.229.047-.106.075-.203.105-.302.264-.747.669-1.473 1.006-2.206.675-1.476 1.42-2.942 2.553-4.081 1.101-1.131 2.668-1.891 4.228-1.766.773.07 1.498.407 2.039.952.548.554.951 1.249 1.367 1.95.845 1.413 1.861 2.724 2.974 3.934 2.276 2.38 4.95 4.33 7.786 5.937l.027-.042c-2.682-1.846-5.276-3.835-7.447-6.236-1.094-1.186-2.086-2.465-2.917-3.849-.428-.688-.861-1.414-1.475-2.012-.623-.607-1.464-.974-2.32-1.032-1.726-.108-3.357.738-4.494 1.937-1.162 1.206-1.893 2.713-2.547 4.199-.326.752-.711 1.467-.972 2.259-.027.096-.055.195-.089.277.018.03-.128.1-.195.155l-.505.344-1.01.687-4.043 2.751zm32.6285 5.0039 6.614 4.75.062.044.067-.052c.971-.76 2.4-.688 3.461-.082 1.09.59 1.987 1.51 2.734 2.503.747 1.005 1.305 2.141 1.752 3.31.436 1.171.758 2.402.921 3.629l.001.012.002.007 10.117 49.201 2.571 12.292c.855 4.098 1.729 8.192 2.644 12.277 1.788 8.177 3.645 16.342 5.581 24.489l.098-.021c-1.524-8.234-3.129-16.451-4.802-24.654-.815-4.106-1.672-8.203-2.547-12.297l-2.621-12.28-10.648-49.09.003.02c-.187-1.284-.529-2.515-.99-3.711-.473-1.189-1.058-2.343-1.838-3.365-.783-1.011-1.71-1.943-2.862-2.548-1.124-.62-2.653-.701-3.715.156l.128-.008-6.675-4.664Z"/>
  </g>
  <g clip-path="url(#o)" transform="matrix(1.3333 0 0 -1.3333 -73.92 470.8696)">
    <path fill="#a9d7a8" d="m143.7749 42.6807-3.073-14.116-1.523-7.061c-.533-2.346-1.08-4.693-1.545-7.052l-.025.001c.32 2.393.869 4.74 1.326 7.104.506 2.354 1.03 4.705 1.572 7.051l3.244 14.078zm5.4697-4.5264-2.857-12.641c-.47-2.109-.966-4.212-1.498-6.306-.574-2.083-1.124-4.176-1.871-6.212l-.047.014 1.433 6.319c.516 2.097 1.044 4.191 1.594 6.28l3.199 12.563z"/>
  </g>
  <g clip-path="url(#p)" transform="matrix(1.3333 0 0 -1.3333 -73.92 470.8696)">
    <path fill="#1c4d24" d="M144.8071 45.918s8.136 22.799 8.136 24.277l-2.404-27.061Z"/>
    <path fill="none" stroke="#1f5127" stroke-miterlimit="10" stroke-width=".25" d="M144.8071 45.918s8.136 22.799 8.136 24.277l-2.404-27.061Z"/>
  </g>
  <g clip-path="url(#q)" transform="matrix(1.3333 0 0 -1.3333 -73.92 470.8696)">
    <path fill="#14351a" d="M145.6611 20.5615s-.564-2.823 3.105-.847c3.671 1.977 12.141 8.046 12.141 8.046l-14.682-12.139s-1.411-3.106-2.823-3.106zm27.2442 15.1045c-.004-1.446-1.07-2.779-2.399-3.374-.657-.337-1.379-.482-2.091-.605-.359-.031-.719-.066-1.078-.08l-1.077.017.159.054c-1.199-.962-2.414-1.903-3.678-2.787 1.09 1.09 2.227 2.126 3.381 3.14l.06.053.098.001 1.04.01c.345.015.686.063 1.03.086.675.107 1.354.237 1.972.514.619.267 1.212.623 1.659 1.141.445.511.794 1.132.924 1.83"/>
    <path fill="#090f0c" d="M157.438 246.853c-3.264-4.769-6.682-9.435-10.307-13.937-1.812-2.252-3.673-4.466-5.642-6.583-1.971-2.113-4.006-4.183-6.297-5.962l.01.009c-5.074-5.876-9.174-12.649-11.803-19.957-.645-1.831-1.183-3.701-1.587-5.599-.415-1.896-.62-3.826-.931-5.755-.27-1.932-.622-3.847-.955-5.766-.329-1.919-.67-3.837-1.03-5.75-2.826-15.319-5.84-30.599-8.861-45.879-6.074-30.553-12.226-61.089-18.53-91.596l.004.072c.102-.541.57-1.066 1.102-1.381.542-.333 1.175-.525 1.819-.646.65-.103 1.313-.149 1.979-.136.667.005 1.333.074 1.999.142l.073.008.06-.032 34.785-17.845.037-.02.026-.032 4.314-5.322-.333-.079 26.803 122.635-26.432-122.716-.083-.387-.25.307-4.323 5.316.062-.051L98.333 37.7l.133-.023c-1.357-.158-2.74-.238-4.117-.01-.683.128-1.369.33-1.984.705-.605.38-1.164.918-1.323 1.729l-.006.028.009.044c6.237 30.518 12.524 61.028 18.622 91.574 3.045 15.274 6.085 30.55 8.936 45.86.363 1.913.706 3.829 1.039 5.746.335 1.917.691 3.832.963 5.756.312 1.915.522 3.863.943 5.772.41 1.909.954 3.788 1.606 5.628 1.305 3.681 3.033 7.201 5.043 10.542 2.025 3.332 4.288 6.524 6.883 9.442l.004.005.007.005c2.287 1.758 4.329 3.815 6.306 5.914 1.978 2.105 3.848 4.309 5.669 6.551 3.646 4.483 7.086 9.132 10.372 13.885m30.4897-6.5381c.662-6 2.384-11.854 4.766-17.383 1.208-2.759 2.553-5.464 4.145-8.021 1.521-2.586 3.466-4.953 4.668-7.762 2.447-5.579 3.056-11.775 2.803-17.795-.279-6.047-1.327-12.043-3.077-17.844l.006.021-6.995-34.018-7.098-33.996-7.099-33.996-7.179-33.98 6.91 34.035 6.99 34.019 6.99 34.018 7.095 33.998.002.008.004.014c1.753 5.744 2.819 11.728 3.115 17.736.271 5.987-.317 12.139-2.722 17.667-1.173 2.772-3.098 5.132-4.627 7.746-1.574 2.582-2.899 5.308-4.085 8.084-2.337 5.564-4.006 11.442-4.612 17.449m-11.9023-93.2778-3.519-14.792-3.584-14.775-7.142-29.558-7.239-29.533-3.566-14.78c-1.18-4.928-2.435-9.84-3.439-14.808 1.94 9.951 4.365 19.798 6.681 29.665l7.078 29.574 7.305 29.519 3.67 14.755z"/>
    <path fill="#98cc6c" d="M180.104 85.1387c0-3.624-1.469-6.562-3.281-6.562-1.813 0-3.281 2.938-3.281 6.562 0 3.625 1.468 6.562 3.281 6.562 1.812 0 3.281-2.937 3.281-6.562"/>
    <path fill="none" stroke="#33b14a" stroke-miterlimit="10" stroke-width=".25" d="M180.104 85.1387c0-3.624-1.469-6.562-3.281-6.562-1.813 0-3.281 2.938-3.281 6.562 0 3.625 1.468 6.562 3.281 6.562 1.812 0 3.281-2.937 3.281-6.562Z"/>
    <path fill="#98cc6c" d="M172.4868 52.9121c0-3.301-3.143-4.922-3.984-4.922-.842 0 1.289.918 1.289 4.219s-.021 6.211.82 6.211 1.875-2.207 1.875-5.508"/>
    <path fill="none" stroke="#33b14a" stroke-miterlimit="10" stroke-width=".25" d="M172.4868 52.9121c0-3.301-3.143-4.922-3.984-4.922-.842 0 1.289.918 1.289 4.219s-.021 6.211.82 6.211 1.875-2.207 1.875-5.508Z"/>
    <path fill="#98cc6c" d="M172.2524 64.9824c.039.467-2.578.234-2.813-1.406-.234-1.641-.351-3.633.235-3.633s2.461 3.633 2.578 5.039"/>
    <path fill="none" stroke="#33b14a" stroke-miterlimit="10" stroke-width=".25" d="M172.2524 64.9824c.039.467-2.578.234-2.813-1.406-.234-1.641-.351-3.633.235-3.633s2.461 3.633 2.578 5.039z"/>
    <path fill="#98cc6c" d="M178.4775 106.9951c0-3.334-.576-6.095-2.227-6.095-1.65 0-2.988 2.702-2.988 6.036 0 3.333 3.565 6.27 5.215 6.27s0-2.878 0-6.211"/>
    <path fill="none" stroke="#33b14a" stroke-miterlimit="10" stroke-width=".25" d="M178.4775 106.9951c0-3.334-.576-6.095-2.227-6.095-1.65 0-2.988 2.702-2.988 6.036 0 3.333 3.565 6.27 5.215 6.27s0-2.878 0-6.211z"/>
    <path fill="#98cc6c" d="M172.0181 93.0488c0-1.585-.918-2.871-2.051-2.871s-2.051 1.286-2.051 2.871c0 1.586.918 2.871 2.051 2.871s2.051-1.285 2.051-2.871"/>
    <path fill="none" stroke="#33b14a" stroke-miterlimit="10" stroke-width=".25" d="M172.0181 93.0488c0-1.585-.918-2.871-2.051-2.871s-2.051 1.286-2.051 2.871c0 1.586.918 2.871 2.051 2.871s2.051-1.285 2.051-2.871Z"/>
    <path fill="#98cc6c" d="M178.8149 94.9238c0-1.585-.787-2.871-1.758-2.871s-1.758 1.286-1.758 2.871c0 1.586.787 2.871 1.758 2.871s1.758-1.285 1.758-2.871"/>
    <path fill="none" stroke="#33b14a" stroke-miterlimit="10" stroke-width=".25" d="M178.8149 94.9238c0-1.585-.787-2.871-1.758-2.871s-1.758 1.286-1.758 2.871c0 1.586.787 2.871 1.758 2.871s1.758-1.285 1.758-2.871Z"/>
    <path fill="#98cc6c" d="M164.8691 75.6465c0-.776-.708-1.406-1.582-1.406-.874 0-1.582.63-1.582 1.406 0 .776.708 1.406 1.582 1.406.874 0 1.582-.63 1.582-1.406"/>
    <path fill="none" stroke="#33b14a" stroke-miterlimit="10" stroke-width=".25" d="M164.8691 75.6465c0-.776-.708-1.406-1.582-1.406-.874 0-1.582.63-1.582 1.406 0 .776.708 1.406 1.582 1.406.874 0 1.582-.63 1.582-1.406Z"/>
    <path fill="#98cc6c" d="M164.9863 71.6621c0-.518-.314-.937-.703-.937-.388 0-.703.419-.703.937s.315.937.703.937c.389 0 .703-.419.703-.937"/>
    <path fill="none" stroke="#33b14a" stroke-miterlimit="10" stroke-width=".25" d="M164.9863 71.6621c0-.518-.314-.937-.703-.937-.388 0-.703.419-.703.937s.315.937.703.937c.389 0 .703-.419.703-.937Z"/>
    <path fill="#98cc6c" d="M165.2212 82.502c0-.55-.315-.996-.704-.996-.388 0-.703.446-.703.996s.315.996.703.996c.389 0 .704-.446.704-.996"/>
    <path fill="none" stroke="#33b14a" stroke-miterlimit="10" stroke-width=".25" d="M165.2212 82.502c0-.55-.315-.996-.704-.996-.388 0-.703.446-.703.996s.315.996.703.996c.389 0 .704-.446.704-.996Z"/>
    <path fill="#98cc6c" d="M172.1353 72.1895c0-.485-.42-.879-.937-.879-.519 0-.938.394-.938.879s.419.879.938.879c.517 0 .937-.394.937-.879"/>
    <path fill="none" stroke="#33b14a" stroke-miterlimit="10" stroke-width=".25" d="M172.1353 72.1895c0-.485-.42-.879-.937-.879-.519 0-.938.394-.938.879s.419.879.938.879c.517 0 .937-.394.937-.879Z"/>
    <path fill="#e7f3e2" d="M176.5381 111.7275s.667-1.402.4-1.67c-.267-.267 1.603.268 1.603.268s-.601 2.538-2.07 1.669m-.3959-7.9965 1.771.774s-.358-2.166-1.691-3.253c-1.334-1.085-.138 2.152-.08 2.479m.0444-7.4921s-.586-3.633.352-3.281c.937.351 1.289 2.812 1.054 3.281-.234.469-1.406 0-1.406 0m-1.1718-6.5625s4.336-4.687 2.813-8.555c0 0 3.984 5.508.234 9.024 0 0-1.875.937-3.047-.469m-4.0679-26.3174s-.239-1.994-.797-2.153c-.559-.16-.399 2.871-.16 3.11.239.239 1.516.399 1.516.399zm-7.5098 12.4502s-.108-.899-.36-.972c-.252-.071-.18 1.296-.072 1.404.108.108.684.18.684.18zm7.6514-19.8936s-.108-.899-.36-.972c-.251-.072-.18 1.296-.072 1.404.108.108.684.179.684.179Zm-43.7134 37.7432s2.756 1.008 2.756-.467c-.001.25-.369 3.676-2.756.467m3.8804 5.0117s1.699.621 1.699-.288c-.001.154-.228 2.266-1.699.288m15.2016 4.7412s1.699.621 1.699-.287c-.001.153-.228 2.266-1.699.287m-.0864-6.2744s3.211-.003 2.656-1.518c.094.257 1.005 3.916-2.656 1.518m-8.0068-18.041s5.07-.003 4.194-2.396c.148.407 1.586 6.184-4.194 2.396"/>
    <path fill="#d9edd7" d="M135.4805 97.8584s.881.322.881-.149c0 .08-.117 1.175-.881.149m3.8003-3.7285s.882.322.882-.149c-.001.08-.118 1.175-.882.149"/>
    <path fill="#e7f3e2" d="M116.457 80.1191c0-.96-.25-1.738-.559-1.738-.308 0-.558.778-.558 1.738 0 .959.25 1.737.558 1.737.309 0 .559-.778.559-1.737m7.3096-1.6328c0-.604-.157-1.093-.351-1.093-.194 0-.351.489-.351 1.093s.157 1.092.351 1.092c.194 0 .351-.488.351-1.092m-2.5581-10.9384c-.154-.641-.703-3.944-.969-4.032-.293-.098.288 3.116.446 4.058.157.947.921 3.587 1.23 3.587.309 0-.483-2.679-.707-3.613"/>
    <path fill="none" stroke="#090f0c" stroke-miterlimit="10" stroke-width=".25" d="M144.0991 13.1299s-3.805-3.343-7.824 2.952"/>
  </g>
  <g clip-path="url(#r)" transform="matrix(1.3333 0 0 -1.3333 -73.92 470.8696)">
    <path d="M150.0137 249.21s20.151-12.504 42.678-10.644l-1.033 2.17s-9.611.207-13.434.827c-3.823.62-16.121 4.34-17.567 4.96-1.447.62-10.127 4.65-10.127 4.65z"/>
  </g>
</svg>
