<svg xmlns="http://www.w3.org/2000/svg" data-name="Layer 1" viewBox="0 0 98.1881 87.4241">
  <path fill="#fff" d="M98.1881 44.472a10.738 10.738 0 0 0-18.184-7.7252 52.5825 52.5825 0 0 0-28.7165-9.109l4.8904-23.01 15.9812 3.3994a7.67 7.67 0 1 0 .7854-3.7552L55.0858.4738a1.9175 1.9175 0 0 0-2.2734 1.4757l-5.461 25.6792a52.7359 52.7359 0 0 0-29.146 9.0997A10.738 10.738 0 1 0 6.3873 54.262a21.1692 21.1692 0 0 0-.2393 3.249c0 16.5212 19.218 29.913 42.952 29.913s42.952-13.3918 42.952-29.913a21.298 21.298 0 0 0-.2516-3.2275 10.738 10.738 0 0 0 6.3876-9.8115Zm-73.632 7.67a7.67 7.67 0 1 1 7.67 7.67 7.67 7.67 0 0 1-7.67-7.67Zm42.768 20.2672c-5.234 5.2156-15.2664 5.636-18.2148 5.636-2.9483 0-12.9838-.4081-18.2116-5.636a1.9883 1.9883 0 1 1 2.8133-2.8103c3.2981 3.2981 10.3576 4.4701 15.3983 4.4701 5.0407 0 12.1002-1.172 15.4075-4.4731a1.988 1.988 0 1 1 2.8072 2.8133zm-1.35-12.5972a7.67 7.67 0 1 1 7.67-7.67 7.67 7.67 0 0 1-7.67 7.67Z"/>
</svg>
