<svg xmlns="http://www.w3.org/2000/svg" xml:space="preserve" viewBox="-.354 -1 209.3458 199.999">
  <path fill="#68acdd" d="M138.552 79.494 29.112 28.461l-29.466 119.5 109.44 51.034 29.466-119.5"/>
  <path fill="#4799d5" d="m179.139 169.532 29.466-119.5-70.05 29.467-29.466 119.5 70.05-29.467"/>
  <path fill="#231f20" d="M175.584 143.182c1.629-6.604-.189-10.631-4.059-9.004-3.87 1.627-8.324 8.295-9.952 14.898-1.628 6.603.191 10.627 4.06 8.999 3.869-1.628 8.324-8.293 9.951-14.893"/>
  <path fill="#231f20" d="M165.844 121.572c1.627-6.599-.19-10.631-4.059-9.004-3.869 1.627-8.325 8.299-9.953 14.898-1.628 6.599.191 10.631 4.059 9.004 3.868-1.627 8.326-8.299 9.953-14.898"/>
  <path fill="#231f20" d="M156.104 99.962c1.627-6.599-.188-10.632-4.059-9.004-3.871 1.628-8.323 8.299-9.95 14.897-1.627 6.598.188 10.632 4.056 9.005 3.868-1.627 8.326-8.298 9.953-14.898"/>
  <path fill="#89bee4" d="M208.602 50.034 99.158-1l-70.05 29.466L138.551 79.5l70.051-29.466"/>
  <path fill="#231f20" d="M167.194 40.272c-6.049-2.82-14.083-3.784-17.951-2.156-3.868 1.628-2.108 5.229 3.939 8.05 6.044 2.818 14.082 3.784 17.951 2.157 3.869-1.627 2.104-5.233-3.939-8.051"/>
  <path fill="#231f20" d="M124.114 35.096c-6.044-2.818-14.083-3.785-17.95-2.158-3.867 1.627-2.102 5.232 3.941 8.05 6.043 2.818 14.082 3.784 17.948 2.158 3.866-1.626 2.105-5.232-3.939-8.05"/>
  <path fill="#231f20" d="M114.664 15.774c-6.045-2.817-14.083-3.783-17.951-2.156-3.868 1.627-2.104 5.232 3.939 8.051s14.082 3.784 17.951 2.156c3.869-1.628 2.104-5.233-3.939-8.051"/>
  <path fill="#231f20" d="M81.033 29.918c-6.044-2.818-14.08-3.785-17.948-2.157-3.868 1.628-2.104 5.231 3.939 8.05 6.043 2.819 14.082 3.785 17.951 2.157 3.869-1.628 2.102-5.231-3.942-8.05"/>
  <path fill="#231f20" d="M133.564 54.416c-6.047-2.82-14.079-3.785-17.947-2.158-3.868 1.627-2.108 5.23 3.939 8.051 6.043 2.818 14.082 3.784 17.951 2.156 3.869-1.628 2.102-5.23-3.943-8.049"/>
  <path fill="none" stroke="#231f20" stroke-width="2" d="M138.554 79.5 29.114 28.465"/>
  <path fill="none" stroke="#231f20" stroke-width="2" d="M208.604 50.032 138.555 79.5"/>
  <path fill="#231f20" d="M89.1123 112.1785c-.6671-.2004-1.5822-.2044-2.8463.0678-8.0902 1.7422 1.1463 7.664-4.9913 13.7924-6.1376 6.1284-10.1623-4.9937-12.7023 3.8788-2.54 8.8724 6.3881 2.8667 8.1259 12.1058 1.7378 9.2392-8.6685 7.4021-3.1186 14.532 5.5499 7.1298 5.2417-4.7974 13.1174-1.6867 7.8756 3.1107 1.4936 12.3958 9.5838 10.653 8.09-1.7426-1.1463-7.664 4.9912-13.7924 6.1376-6.1284 10.1624 4.9937 12.7023-3.8787 2.54-8.8725-6.388-2.8667-8.1259-12.1059-1.7378-9.2392 8.6685-7.402 3.1186-14.5319-5.5498-7.1298-5.2417 4.7973-13.1174 1.6866-6.6447-2.6245-3.1352-9.6394-6.7374-10.721zm5.09 16.4755c5.015 1.9809 7.769 8.1667 6.1512 13.8166-1.6177 5.6498-6.9943 8.6242-12.0092 6.6433-5.015-1.981-7.769-8.1667-6.1513-13.8166 1.6178-5.6498 6.9944-8.6242 12.0093-6.6433z"/>
  <path fill="#231f20" d="M66.8118 58.583c-.664-.7334-1.7335-1.4314-3.3743-2.0794-10.5004-4.1476-3.1555 9.5897-13.9427 11.913-10.7873 2.3232-8.9741-13.3825-17.1576-5.2112-8.1835 8.1713 5.8012 8.1025 2.4142 19.9325-3.387 11.83-14.4997 1.855-12.183 14.1737 2.3167 12.3187 8.9562-1.487 16.3563 8.0197 7.4001 9.5068-5.5256 15.2368 4.9749 19.3842 10.5005 4.1474 3.1556-9.5897 13.9428-11.913 10.7872-2.3232 8.974 13.3824 17.1576 5.2112 8.1835-8.1713-5.8012-8.1025-2.4142-19.9325 3.387-11.83 14.4996-1.8551 12.183-14.1738-2.3168-12.3186-8.9563 1.4871-16.3564-8.0197-6.2436-8.021 1.9847-13.3441-1.6004-17.3046Zm-3.7072 22.6044c4.7125 6.054 4.308 15.1798-.9033 20.3832-5.2112 5.2034-13.2558 4.514-17.9682-1.5399-4.7124-6.0539-4.308-15.1797.9033-20.3832 5.2112-5.2034 13.2559-4.514 17.9682 1.5399z"/>
</svg>
