<svg xmlns="http://www.w3.org/2000/svg" xml:space="preserve" viewBox="0 0 43.349 43.349"><path fill="#fd671d" d="M21.08 43.273a1.99 1.99 0 0 1-.382-.107C18.05 41.658 3.527 33.096 3.365 32.948c-.615-.565-.571.295-.57-11.279.003-11.532-.037-10.72.56-11.266.134-.122 3.52-2.12 7.525-4.438 4.004-2.318 7.92-4.585 8.7-5.038 1.493-.867 1.87-.997 2.485-.86.305.07 17.563 10.096 17.93 10.418.089.078.25.331.36.564l.199.423v20.49l-.2.423c-.109.233-.27.486-.358.564-.133.116-15.626 9.022-17.39 9.995-.59.327-1.05.425-1.527.329z"/><path fill="#010000" d="M21.08 43.273a1.99 1.99 0 0 1-.382-.107C18.05 41.658 3.527 33.096 3.365 32.948c-.615-.565-.571.295-.57-11.279.003-11.532-.037-10.72.56-11.266.134-.122 3.52-2.12 7.525-4.438 4.004-2.318 7.92-4.585 8.7-5.038 1.493-.867 1.87-.997 2.485-.86.305.07 17.563 10.096 17.93 10.418.089.078.25.331.36.564l.199.423v20.49l-.2.423c-.109.233-.27.486-.358.564-.133.116-15.626 9.022-17.39 9.995-.59.327-1.05.425-1.527.329zm-.286-1.88c.15-.166.163-.36.186-2.816.035-3.826.341-3.508-3.92-4.075l-4.826-.642c-4.587-.611-4.62-.615-4.938-.535-.844.213-.864.199 6.604 4.542 6.49 3.774 6.612 3.837 6.894 3.526zm-2.822-2.799c-.305-.068-.481-.213-1.185-.97-.526-.564-.909-.905-1.051-.935-.123-.025-.39-.218-.593-.427-.289-.3-.327-.37-.178-.325.293.089.23-.048-.233-.504-.531-.523-.529-.539.063-.44.458.076.514.112.932.61l.444.528.978.147c1.165.177 1.393.372 1.393 1.195 0 .54-.09 1.223-.16 1.21a22.35 22.35 0 0 1-.41-.089zm-.258-1.169c-.06-.35-.088-.383-.385-.454-.462-.109-.463-.038-.004.493.45.522.485.518.39-.039zm11.37.421c3.614-2.065 6.582-3.814 6.772-3.992.815-.76.122-.731-7.408.309-.489.067-1.956.26-3.26.43-3.577.463-3.302.136-3.302 3.916 0 3.119 0 3.12.552 3.043.117-.017 3.108-1.684 6.646-3.706zm-6.5 1.222c-.209-.215.283-.93.785-1.138.267-.11.339-.253.128-.253-.415 0-.12-.87.499-1.47.8-.779 2.468-1.306 3.217-1.019.525.201-.393 1.549-1.382 2.03-.29.14-.328.191-.289.386.134.67-2.474 1.962-2.957 1.464zm1.612-.63c.307-.187.424-.39.298-.516-.175-.175-.872.273-.872.559 0 .176.244.158.574-.043zm.975-1.322c.52-.263.932-.803.75-.984-.152-.152-.688.019-1.03.328-.66.597-.472 1.037.28.656zm1.124 1.053c.333-.352 2.92-3.206 2.975-3.28.03-.04.9-.166.935-.136.012.01-.591.653-1.34 1.429-.75.775-1.34 1.41-1.312 1.41.029 0 .317-.133.641-.296.736-.371.755-.37.316.024-.355.317-1.816 1.052-2.306 1.16l-.254.055zm-6.276-4.33c.322-.236.642.36-7.532-14.027-1.833-3.225-1.954-3.382-2.32-3.001-.088.09-.751 1.612-1.474 3.382l-2.887 7.06c-1.615 3.944-1.66 4.08-1.449 4.382.234.334.12.316 10.163 1.646.699.093 2.051.277 3.006.41 2.046.282 2.288.297 2.493.147zm-8.647-2.769c-.669-.502-1.212-1.116-1.212-1.372 0-.058 4.315-1.79 4.352-1.747.014.017.166.284.337.593l.31.562-.954.337c-.525.185-1.287.447-1.693.58-.895.297-.89.226-.055.83l.69.499-.5.155c-.273.086-.497.154-.497.151 0-.003-.35-.267-.778-.588zm.354-3.765a56.26 56.26 0 0 0-1.7-.3l-1.617-.273-.289-.516c-.158-.284-.299-.54-.312-.568-.013-.028.444-.349 1.016-.712a83.515 83.515 0 0 0 1.07-.685c.016-.014-.032-.113-.106-.219-.2-.284-.175-.35.244-.645l.38-.268.139.273c.076.15.15.285.164.301.013.016.253-.126.533-.316l.508-.345.315.57c.173.314.33.597.347.63.018.032-.197.184-.477.338-.619.34-.628.187.084 1.427.327.57.584 1.044.571 1.055-.225.19-.673.32-.87.253zm-.885-1.418c-.301-.528-.25-.52-.914-.15-.624.348-.654.423-.17.43.199.003.513.036.7.075.664.137.665.137.384-.355zM25.233 33.7l5.797-.766c5.248-.693 7.09-.93 7.225-.93.2-.001.607-.484.607-.72 0-.255.08-.06-3.3-8.129-2.756-6.583-2.707-6.477-2.995-6.477-.313 0-.414.158-3.193 4.996-1.457 2.538-3.552 6.18-4.653 8.094-2.726 4.733-2.774 4.365.512 3.932zm7.027-3.285c-.525-.263-.8-.863-1.145-2.497-.174-.826-.157-.832-.752.277-.707 1.316-.604 1.228-1.177 1.014-.266-.1-.484-.204-.484-.231 0-.043 2.23-3.914 2.447-4.249.23-.355.562.043.718.864.455 2.385.688 3.028 1.172 3.23.712.3 1.31-.693.74-1.226l-.258-.24.334-.662.333-.661.344.36c1.33 1.393-.622 4.85-2.272 4.021zM21.78 33.04c.072-.081 1.37-2.3 2.882-4.932 7.662-13.322 7.004-12.096 6.656-12.411-.25-.227-19.119-.3-19.551-.076-.428.221-.355.504.537 2.078l4.626 8.166c2.11 3.725 3.93 6.897 4.041 7.048.234.315.592.371.809.127zm-3.577-7.856v-.554l.547-.245c2.187-.982 1.922-2.51-.462-2.663-1.663-.107-2.781-.68-3.37-1.731l-.197-.35h3.821v-.423h9.06v1.166l-.572.057c-4.063.404-5.461 2.573-2.561 3.973l.55.265v1.061h-1.083c-.945 0-1.128-.024-1.44-.184-.475-.245-1.222-.244-1.78.003-.347.153-.572.18-1.461.18h-1.052zm.323-5.098c-.033-.172-2.778-.28-2.778-.11 0 .157.54.228 1.848.246.871.011.956-.001.93-.136zm8.652-.444c0-.223-8.155-.273-8.24-.05-.082.214.02.219 4.148.219 4.036 0 4.092-.002 4.092-.17zM4.491 28.257c.264-.279.202-.138 2.823-6.398 2.466-5.888 2.53-6.072 2.287-6.584-.162-.341-.11-.308-2.832-1.81-2.227-1.23-2.421-1.303-2.705-1.019-.226.226-.27 15.173-.047 15.708.144.344.23.363.474.104zm1.193-6.059c-.216-.303-.626-1.514-.822-2.428-.389-1.817.03-4.099.594-3.238.167.256-.034.982-.267.963-.202-.017-.264.342-.176 1.008.103.773.236.908.236.238 0-1.477.639-1.536 1.108-.103.56 1.709.024 4.54-.673 3.56zm.328-1.414c.242-.291-.085-1.819-.39-1.819-.266 0-.259 1.076.011 1.646.159.334.222.363.38.173zm1.008-1.156c-.12-.225-.153-.87-.049-.973.153-.152.404.327.378.72-.029.43-.175.543-.33.253zm32.243 8.56c.176-.345.152-15.47-.025-15.723-.234-.334-.503-.234-2.848 1.065-3.466 1.92-3.313 1.412-1.635 5.423 4.301 10.28 4.141 9.953 4.508 9.234zM37.1 22.141c-.686-1.68-.67-1.805.307-2.355.787-.443.946-.65 1.006-1.305.05-.558-.074-.775-.282-.49-.09.121-.12.128-.154.034l-.127-.352c-.145-.397.218-1.027.47-.817.722.598.465 3.072-.396 3.825l-.418.366.212.541c.242.619.249.7.11 1.372-.135.655-.119.674-.728-.82zm-1.31-3.177-.22-.51.576-1.205c.316-.663.676-1.414.8-1.668l.224-.463-.351-.302-.351-.302.183-.359c.15-.293.21-.344.329-.28.349.188.78.87.78 1.235 0 .104-1.658 4.266-1.73 4.341-.01.012-.119-.207-.24-.487zm-4.63-4.491c.301-.3.91.571-5.634-8.068-3.655-4.826-3.754-4.927-4.337-4.443-.234.195-9.385 11.938-9.462 12.142-.07.187-.052.247.115.382.324.262 19.056.25 19.319-.013zm-10.607-1.77c-1.363-.436-1.647-2.276-.47-3.042l.31-.2-.284-.268c-1.338-1.262.876-3.018 2.688-2.132.918.448 1.02 1.927.157 2.266-.21.083-.213.093-.06.184 1.221.737 1.235 2.403.024 3.036-.39.204-1.904.304-2.365.157zm1.623-1.328c.41-.522.045-1.385-.587-1.385-.654 0-1.023.932-.554 1.4.303.304.896.296 1.14-.015zM22 8.826c.27-.228.307-.54.097-.807-.235-.299-.688-.32-.883-.041-.414.59.248 1.304.786.848zm-11.493 5.12c.717-.482 8.289-10.386 8.172-10.69-.131-.343-.304-.253-7.374 3.848-6.951 4.033-6.679 3.842-6.204 4.352.15.161 3.301 2.046 4.297 2.57.324.171.785.138 1.11-.08zM7.5 11.875c.194-1.07.28-1.113 2.926-1.473 1.273-.174 2.325-.304 2.339-.29.064.064-.677.895-.799.895-.631 0-3.47.292-3.513.362-.03.049-.08.254-.111.456l-.055.367h-.844Zm2.237-2.303c-.634-.161.234-1.14 1.468-1.656l.325-.135-.23.3c-.126.166-.273.301-.326.301-.14 0-.73.414-.73.511 0 .106.767.104.932-.003.109-.07.105-.082-.021-.083-.706-.006.945-1.19 2.222-1.594 1.612-.51 2.1-.205 1.15.716-.956.925-3.791 1.898-4.79 1.643zm2.95-1.075c.502-.162 1.003-.545.91-.695-.125-.201-1.25.152-1.635.513-.358.335-.015.421.724.182zm23.172 4.364c1.21-.703 2.246-1.34 2.304-1.413.153-.194.13-.563-.042-.714-.192-.168-12.392-7.237-12.843-7.441-.662-.301-.871-.133-.575.462.3.603 7.776 10.07 8.082 10.236.556.3.715.242 3.074-1.13zm-2.558-.707c-1.946-.44-3.53-2.219-2.235-2.51 1.869-.42 5.744 1.505 4.844 2.405-.234.234-1.764.295-2.61.105zm1.742-.801c.49-.31-.574-.775-2.054-.898-1.053-.088-1.34.16-.685.589.459.3 2.406.52 2.74.309zm-2.785-2.43-2.422-.544c-.749-.168-.78-.184-1.05-.56-.222-.31-.246-.377-.117-.338.088.028.89.242 1.784.476.893.234 1.683.449 1.756.477.322.123.084-.125-.454-.474-.687-.445-.698-.48-.082-.267.595.206 2.745 1.73 2.273 1.611l-1.688-.38z"/></svg>