<svg xmlns="http://www.w3.org/2000/svg" xml:space="preserve" viewBox="0 0 46.92 52.92"><path fill="#fff" d="m16.08 22.5 14.44-1.02.01.02.78 10.77-.02.02-15.2.95c-.02 0-.02-.01-.02-.02v-10.7l.01-.01z"/><path fill="#da098b" d="M15.7 46.4c-4.05-3.72-7.1-6.8-7.17-7.22l-.11-.73 14.9.09c10.86.06 14.93.2 15.03.5.18.52-14.31 13.88-15.04 13.87-.3 0-3.73-2.93-7.61-6.5zm-1.06 2.73c-2.42-1.26-12.37-7.3-12.61-7.65-.3-.43 1.17-1.75 2.63-2.35 1.49-.62 12.6 9.58 11.3 10.38-.14.1-.74-.08-1.32-.38zm15.76-.26c.13-.58 10.37-10.06 10.87-10.06.64 0 3.53 1.94 3.53 2.36 0 .56-12.88 8.22-13.81 8.22-.43 0-.66-.2-.59-.52zM.58 39.24c-.54-.87-.66-18.78-.12-18.78.3 0 .63.28.74.62.4 1.34 3.39 15.45 3.39 16.03 0 .98-3.55 2.87-4 2.13zm42.9-.66c-1.81-1.1-1.84.06.25-9.7 1.9-8.8 1.83-8.61 2.67-8.29.48.19.54.65.37 2.96-.1 1.5-.3 5.7-.41 9.35-.25 7.46-.18 7.31-2.88 5.68zM7.24 36.7c-.3-.5 15.4-28.38 16.04-28.5.5-.1 15.66 26.33 16.13 28.12.2.8-31.68 1.18-32.17.38Zm21.66-4.76c1.89-.98 2.7-5.64 1.33-7.71-2.43-3.72-6.6-1.82-6.6 3 0 4.12 2.35 6.22 5.27 4.71zm-2.6-2.39c-1.1-1.56-.37-5.2 1.05-5.2.75 0 1.22 1.16 1.22 2.99 0 2.77-1.11 3.86-2.27 2.21zm-3.37 1.5c0-1.06-.01-1.06-2.03-1.08-2-.02-2.01-.02-1.2-.62 3.2-2.36 3.8-3.46 3.01-5.52-1.1-2.85-6.48-1.39-6.48 1.76 0 .97 2.08.64 2.48-.4.43-1.13 1.87-1.08 2.03.08.09.56-.27.97-1.47 1.67-2.06 1.2-3.04 2.5-3.04 3.98v1.18h6.7zm-17.59 3.1C4.77 32.62-.1 11.98.07 11.81c.48-.48 20.83-4.45 21.16-4.13.4.4-14.38 26.92-15.14 27.16-.24.08-.58-.23-.75-.68Zm34.25-.38C36.43 28.53 25.4 8.48 25.4 8c0-.33.21-.6.47-.6.74 0 20.44 4.21 20.64 4.41.21.21 0 1.14-2.98 13.5-2.45 10.14-2.66 10.6-3.94 8.46zM5.64 8.55C5.64 7.93 20.85 0 22.05 0c1 0 .74 5.58-.27 5.82C9.35 8.77 5.64 9.4 5.64 8.55Zm26.11-1.17-7.67-1.73c-.05 0-.1-1.29-.1-2.85 0-3.62-.52-3.7 9.47 1.36 10.76 5.46 10.48 5.98-1.7 3.22z"/></svg>