<svg xmlns="http://www.w3.org/2000/svg" viewBox="0 0 264.407 148.2645">
  <path fill="#32de84" d="m196.7076 44.6729 21.933-37.9944c1.2378-2.13.4894-4.8357-1.6118-6.0734-2.1012-1.2376-4.8357-.518-6.0446 1.612l-22.221 38.4836c-16.9536-7.7428-36.037-12.0604-56.5599-12.0604-20.5227 0-39.6063 4.3176-56.5599 12.0604L53.4224 2.217C52.1847.087 49.4791-.6325 47.3491.6051c-2.13 1.2377-2.8496 3.9434-1.6119 6.0734l21.9331 37.9944C29.8486 65.1669 4.2311 103.449 0 148.2649h264.407c-4.2312-44.8161-29.8487-83.0984-67.6991-103.592zm-125.209 66.4614c-6.131 0-11.0817-4.9796-11.0817-11.0817 0-6.131 4.9796-11.0817 11.0817-11.0817 6.131 0 11.0817 4.9795 11.0817 11.0817.0289 6.1021-4.9508 11.0817-11.0817 11.0817zm121.381 0c-6.131 0-11.0817-4.9796-11.0817-11.0817 0-6.131 4.9796-11.0817 11.0817-11.0817 6.131 0 11.0817 4.9795 11.0817 11.0817.0288 6.1021-4.9508 11.0817-11.0817 11.0817z"/>
</svg>
