<svg xmlns="http://www.w3.org/2000/svg" viewBox="0 0 842.3201 1000.0001">
  <path fill="#fff" d="M824.6664 779.3036c-15.123 34.9373-33.0237 67.0968-53.7638 96.6638-28.2708 40.3074-51.4182 68.2078-69.2572 83.7012-27.6535 25.4313-57.2822 38.4556-89.0096 39.1963-22.7771 0-50.2454-6.4813-82.2198-19.629-32.0792-13.0861-61.5598-19.5673-88.5158-19.5673-28.2708 0-58.5908 6.4812-91.022 19.5673-32.4805 13.1477-58.6463 19.9994-78.6519 20.6784-30.425 1.2962-60.7512-12.0985-91.022-40.2457-19.3203-16.8514-43.4862-45.7394-72.436-86.6641-31.0608-43.7024-56.597-94.3799-76.6026-152.1559C10.7404 658.4431 0 598.0128 0 539.5085c0-67.0165 14.481-124.8172 43.4863-173.254 22.7956-38.9063 53.1219-69.5967 91.0775-92.1269 37.9557-22.5302 78.9668-34.0113 123.1321-34.7458 24.166 0 55.8563 7.475 95.2378 22.166 39.2705 14.7402 64.4858 22.2153 75.541 22.2153 8.2651 0 36.2766-8.7405 83.7629-26.1658 44.906-16.16 82.806-22.8512 113.8545-20.2155 84.1333 6.79 147.3413 39.9556 189.377 99.7069-75.2446 45.5912-112.4657 109.4473-111.725 191.3645.679 63.8067 23.8264 116.9039 69.3189 159.0631 20.6166 19.5673 43.6406 34.6903 69.257 45.4307-5.5552 16.1106-11.4192 31.5423-17.6536 46.3566zM631.7093 20.0057c0 50.0114-18.2711 96.707-54.6897 139.9278-43.9494 51.3812-97.1082 81.0716-154.7546 76.3866-.7346-5.9998-1.1605-12.3144-1.1605-18.95 0-48.011 20.9006-99.392 58.0168-141.4032 18.5303-21.2709 42.0975-38.9574 70.6768-53.0663C578.3158 9.0023 605.2903 1.3162 630.66 0c.7407 6.6857 1.0494 13.372 1.0494 20.005z"/>
</svg>
