<svg xmlns="http://www.w3.org/2000/svg" preserveAspectRatio="xMidYMid" viewBox="0 0 256 289">
  <path fill="#539E43" d="M128 288.4638c-3.9752 0-7.6853-1.06-11.1304-2.9151l-35.2464-20.9359c-5.3002-2.915-2.6501-3.9751-1.06-4.5051 7.1552-2.3851 8.4803-2.9152 15.9006-7.1553.795-.53 1.855-.265 2.65.265l27.0311 16.1656c1.06.53 2.3851.53 3.1802 0l105.739-61.2174c1.0601-.53 1.5901-1.59 1.5901-2.915v-122.17c0-1.325-.53-2.385-1.59-2.915L129.325 19.2132c-1.06-.53-2.3851-.53-3.1802 0L20.4058 80.1656c-1.06.53-1.59 1.8551-1.59 2.9151v122.1698c0 1.06.53 2.3851 1.59 2.9151l28.8861 16.6957c15.6356 7.9503 25.441-1.325 25.441-10.6004V93.6812c0-1.5901 1.325-3.1802 3.1801-3.1802h13.5156c1.59 0 3.18 1.325 3.18 3.1802v120.5797c0 20.9358-11.3953 33.1263-31.2711 33.1263-6.0953 0-10.8654 0-24.381-6.6253l-27.826-15.9006C4.2401 220.886 0 213.4658 0 205.5155V83.3458C0 75.3954 4.2402 67.9752 11.1304 64L116.8696 2.7826c6.6252-3.7101 15.6356-3.7101 22.2608 0L244.8696 64C251.7598 67.9752 256 75.3954 256 83.3458v122.1697c0 7.9503-4.2402 15.3706-11.1304 19.3458l-105.7392 61.2174c-3.4451 1.59-7.4203 2.385-11.1304 2.385Zm32.5963-84.0083c-46.3768 0-55.9172-21.2008-55.9172-39.2215 0-1.5901 1.325-3.1802 3.1801-3.1802h13.7806c1.59 0 2.915 1.06 2.915 2.6501 2.1201 14.0456 8.2154 20.9359 36.3065 20.9359 22.2609 0 31.8012-5.0352 31.8012-16.9607 0-6.8903-2.65-11.9255-37.3664-15.3706-28.8862-2.9151-46.9069-9.2754-46.9069-32.3313 0-21.4658 18.0207-34.1863 48.232-34.1863 33.9212 0 50.6169 11.6604 52.737 37.1014 0 .795-.265 1.5901-.795 2.3851-.53.53-1.3251 1.06-2.1201 1.06h-13.7806c-1.325 0-2.65-1.06-2.915-2.385-3.1802-14.5756-11.3955-19.3458-33.1264-19.3458-24.381 0-27.296 8.4804-27.296 14.8406 0 7.6853 3.445 10.0704 36.3064 14.3106 32.5962 4.2401 47.9668 10.3354 47.9668 33.1263-.265 23.3209-19.3457 36.5714-53.002 36.5714Z"/>
</svg>
