<svg xmlns="http://www.w3.org/2000/svg" xmlns:xlink="http://www.w3.org/1999/xlink" viewBox="0 0 104.9997 104.9997">
  <g transform="translate(52.4999 52.4999)">
    <path fill="#fff" stroke="#ffffff" stroke-linejoin="round" d="M-8.5-14.5h13c8 0 8 8 0 8h-13Zm-31 37h40v-11h-9v-8h10c11 0 5 19 14 19h25v-19h-6v2c0 8-9 7-10 2s-5-9-6-9c15-8 6-24-6-24h-47v11h10v26h-15z"/>
    <g mask="url(#a)">
      <circle r="43" fill="none" stroke="#ffffff" stroke-width="9"/>
      <path id="b" stroke="#ffffff" stroke-linejoin="round" stroke-width="3" d="m51 0-5-3v6z"/>
      <use xlink:href="#b" transform="rotate(11.25)"/>
      <use xlink:href="#b" transform="rotate(22.5)"/>
      <use xlink:href="#b" transform="rotate(33.75)"/>
      <use xlink:href="#b" transform="rotate(45)"/>
      <use xlink:href="#b" transform="rotate(56.25)"/>
      <use xlink:href="#b" transform="rotate(67.5)"/>
      <use xlink:href="#b" transform="rotate(78.75)"/>
      <use xlink:href="#b" transform="rotate(90)"/>
      <use xlink:href="#b" transform="rotate(101.25)"/>
      <use xlink:href="#b" transform="rotate(112.5)"/>
      <use xlink:href="#b" transform="rotate(123.75)"/>
      <use xlink:href="#b" transform="rotate(135)"/>
      <use xlink:href="#b" transform="rotate(146.25)"/>
      <use xlink:href="#b" transform="rotate(157.5)"/>
      <use xlink:href="#b" transform="rotate(168.75)"/>
      <use xlink:href="#b" transform="scale(-1)"/>
      <use xlink:href="#b" transform="rotate(-168.75)"/>
      <use xlink:href="#b" transform="rotate(-157.5)"/>
      <use xlink:href="#b" transform="rotate(-146.25)"/>
      <use xlink:href="#b" transform="rotate(-135)"/>
      <use xlink:href="#b" transform="rotate(-123.75)"/>
      <use xlink:href="#b" transform="rotate(-112.5)"/>
      <use xlink:href="#b" transform="rotate(-101.25)"/>
      <use xlink:href="#b" transform="rotate(-90)"/>
      <use xlink:href="#b" transform="rotate(-78.75)"/>
      <use xlink:href="#b" transform="rotate(-67.5)"/>
      <use xlink:href="#b" transform="rotate(-56.25)"/>
      <use xlink:href="#b" transform="rotate(-45)"/>
      <use xlink:href="#b" transform="rotate(-33.75)"/>
      <use xlink:href="#b" transform="rotate(-22.5)"/>
      <use xlink:href="#b" transform="rotate(-11.25)"/>
      <path id="c" stroke="#ffffff" stroke-linejoin="round" stroke-width="6" d="m0-35 7-7H-7z"/>
      <use xlink:href="#c" transform="rotate(72)"/>
      <use xlink:href="#c" transform="rotate(144)"/>
      <use xlink:href="#c" transform="rotate(-144)"/>
      <use xlink:href="#c" transform="rotate(-72)"/>
    </g>
    <mask id="a">
      <path fill="#ffffff" d="M-60-60H60V60H-60z"/>
      <circle id="d" cx="0" cy="-40" r="3"/>
      <use xlink:href="#d" transform="rotate(72)"/>
      <use xlink:href="#d" transform="rotate(144)"/>
      <use xlink:href="#d" transform="rotate(-144)"/>
      <use xlink:href="#d" transform="rotate(-72)"/>
    </mask>
  </g>
</svg>
